<?xml version="1.0" standalone="no"?>
<!DOCTYPE svg PUBLIC "-//W3C//DTD SVG 1.1//EN" "http://www.w3.org/Graphics/SVG/1.1/DTD/svg11.dtd" >
<svg xmlns="http://www.w3.org/2000/svg">
<metadata></metadata>
<defs>
<font id="batman_beat_the_hell_outta_Rg" horiz-adv-x="1615" >
<font-face units-per-em="2048" ascent="1638" descent="-410" />
<missing-glyph horiz-adv-x="2048" />
<glyph horiz-adv-x="0" />
<glyph unicode="&#xd;" horiz-adv-x="2048" />
<glyph unicode=" "  horiz-adv-x="2048" />
<glyph unicode="&#x09;" horiz-adv-x="2048" />
<glyph unicode="&#xa0;" horiz-adv-x="2048" />
<glyph unicode="!" horiz-adv-x="1609" d="M39 799q0 311 221.5 532t532.5 221q313 0 534 -221t221 -532q0 -313 -221 -533.5t-534 -220.5q-311 0 -532.5 220t-221.5 534zM141 799q0 -270 191.5 -461t460.5 -191q270 0 461.5 190.5t191.5 461.5q0 270 -191.5 460.5t-461.5 190.5q-268 0 -460 -190.5t-192 -460.5z M360 936l2 295h867l-2 -295h-27q-23 135 -82 172q-35 25 -137 25h-111l2 -797q0 -94 136 -94v-29h-428v29q135 0 135 94v797q-125 0 -162 -7q-82 -10 -111.5 -50t-52.5 -140h-29z" />
<glyph unicode="&#x22;" d="M31 786q0 326 228 556.5t550 230.5t549 -230.5t227 -556.5t-227.5 -555t-548.5 -229q-322 0 -550 229.5t-228 554.5zM258 512q0 -35 29 -59q63 -37 170 -109q100 -80 143 -139h37q86 86 257 238.5t249 226.5q6 8 11 36.5t13 34.5q43 33 64 37q-6 -2 49 -2q121 0 121 -127 q0 -51 -50.5 -140t-84.5 -97q-12 33 -23.5 61.5t-66.5 28.5q-53 0 -118 -47t-126 -97q-49 0 -76 -63q16 -2 16 -12q0 -8 -18 -29l-25 -25q18 -6 35 10.5t25 16.5q-2 -8 20 -14q-18 -20 -22 -37q4 -2 8 -2q6 0 39 31.5t72 41.5q8 0 8 13q0 12 -27 73q111 106 172 107 q37 0 51 -25q33 -57 39 -63q63 2 133 117q64 106 64 174q0 18 -37 90q-41 80 -70 80q-12 0 -182 -33v41q0 12 13.5 52t13.5 56q0 31 9 111t9 88q0 37 -172 117q-193 92 -205 102l-546 -415zM301 498v432q76 -78 154 -156q129 -143 127 -207l14 -307q-297 211 -295 238z M319 952q23 31 201 156q170 121 176 121q10 0 11 -6q0 -2 -2.5 -6.5t-2.5 -6.5q0 -4 11 -4q12 0 55 45q59 61 82 78l45 -31q-279 -184 -496 -362q35 -59 82 -59q14 0 13 -9q-6 -10 -2 -14q244 246 495 385q12 -4 29 -29q29 -41 33 -45q-4 0 -26 9.5t-36 9.5q-16 0 -174 -140 q-250 -221 -260 -231q16 -29 47 -52.5t55 -17.5q102 106 207 215q147 154 246 203q19 -14 29 -14q-78 -100 -248 -258q-137 -127 -277 -256zM334 586q16 -66 10 -84q29 8 82 -31q27 16 59 33l2 53q-10 12 -29.5 21.5t-19.5 13.5q0 14 5.5 55t5.5 58q-2 -2 -19 10 q0 -47 -6 -113q-61 -2 -90 -16zM354 555l4 8q37 -8 64 -24q25 12 45 14l2 -6q-14 -2 -41 -15v-40h-6l-2 36q-18 10 -66 27zM377 571q27 2 26 13q0 -2 18.5 -7.5t18.5 -7.5q0 2 -16 -10q-4 0 -22.5 6t-24.5 6zM502 920q0 33 10 38q111 94 346 291q0 -12 25 -39 q-240 -174 -381 -290zM608 489q0 80 2 115q295 291 414 303q0 -4 12.5 -15.5t12.5 -27.5q0 -12 -23 -90q-25 -88 -31 -115q-6 -35 -67 -92q-78 -72 -86 -86q-14 -37 -54 -96q-39 -43 -165 -147q0 45 -7.5 145t-7.5 106zM666 801q20 35 108 131q68 74 72 112q72 78 123 95 q0 -25 14 -37q-104 -106 -317 -301zM883 319q32 21 110 -20l-28 -29q-8 8 -27 6q-20 -2 -29 -18q0 4 7.5 18.5t7.5 24.5q0 6 -2 12q-16 -14 -39 6z" />
<glyph unicode="#" horiz-adv-x="1609" d="M49 821q0 313 221.5 533.5t532.5 220.5q313 0 533 -220t220 -534q0 -311 -220 -532t-533 -221q-311 0 -532.5 221t-221.5 532zM152 821q0 -270 191.5 -460.5t459.5 -190.5q270 0 460.5 190.5t190.5 460.5t-190.5 461t-460.5 191q-268 0 -459.5 -191t-191.5 -461zM373 389 v866h295v-26q-135 -23 -174 -82q-23 -35 -23 -137v-111h795q94 0 94 135h29v-426h-29q0 135 -94 135h-795q0 -125 4 -161q10 -84 50 -113t143 -51v-29h-295z" />
<glyph unicode="$" horiz-adv-x="1609" d="M49 821q0 313 221.5 533.5t532.5 220.5q313 0 533 -220t220 -534q0 -311 -220 -532t-533 -221q-311 0 -532.5 221t-221.5 532zM152 821q0 -270 191.5 -460.5t459.5 -190.5q270 0 460.5 190.5t190.5 460.5t-190.5 461t-460.5 191q-268 0 -459.5 -190.5t-191.5 -461.5z M190 823l209 209l21 -20q-68 -94 -68 -156q0 -53 82 -137l78 -78l563 563q27 27 27 60q0 45 -55 102l20 20l301 -301l-20 -22q-55 57 -103 57q-33 0 -59 -26l-561 -564q88 -88 116 -110q66 -51 117 -43q47 6 135 61l21 -18l-211 -209z" />
<glyph unicode="%" horiz-adv-x="1609" d="M27 831q0 313 221 533.5t532 220.5q313 0 533.5 -220t220.5 -534q0 -311 -220.5 -532t-533.5 -221q-311 0 -532 221t-221 532zM129 831q0 -270 190.5 -460.5t460.5 -190.5t461 190.5t191 460.5t-190.5 461t-461.5 191q-270 0 -460.5 -190.5t-190.5 -461.5zM346 399v295 h29q23 -135 80 -172q35 -25 137 -24h110v796q0 94 -135 95v28h426v-28q-135 0 -135 -95l2 -796q123 0 160 6q84 10 112.5 50t53.5 140h26v-295h-866z" />
<glyph unicode="&#x26;" horiz-adv-x="1609" d="M16 809q0 311 221.5 532.5t532.5 221.5q313 0 533.5 -221.5t220.5 -532.5q0 -313 -220.5 -533.5t-533.5 -220.5q-311 0 -532.5 220.5t-221.5 533.5zM119 809q0 -270 190.5 -460.5t460.5 -190.5t460.5 190.5t190.5 460.5t-190.5 460.5t-460.5 190.5t-460.5 -190.5 t-190.5 -460.5zM184 596v426h31q0 -135 92 -135h797q0 125 -4 162q-12 84 -51 112.5t-142 50.5v29h295v-866h-295v26q135 23 174 82q23 35 23 138v110h-797q-92 0 -92 -135h-31z" />
<glyph unicode="'" d="M0 786q0 338 236.5 578t572.5 240q334 0 570.5 -240t236.5 -578t-236.5 -576.5t-570.5 -238.5q-336 0 -572.5 239t-236.5 576zM61 786q0 -313 219.5 -533t528.5 -220q307 0 526 220t219 533t-219 534.5t-526 221.5q-309 0 -528.5 -221t-219.5 -535zM264 506 q-2 -39 17 -53q68 -43 176 -121q70 -53 82 -66q41 -35 61 -61h37q86 86 257 238.5t249 226.5q6 8 11 36.5t13 34.5q43 33 64 37q-6 -2 49 -2q121 0 121 -127q0 -51 -50.5 -140t-84.5 -97q-12 33 -23.5 61.5t-66.5 28.5q-53 0 -118 -47t-126 -97q-49 0 -76 -63q16 -2 16 -12 q0 -8 -18 -29l-25 -25q18 -6 35 10.5t25 16.5q-2 -8 20 -14q-18 -20 -22 -37q4 -2 8 -2q6 0 39 31.5t72 41.5q8 0 8 13q0 12 -27 73q111 106 172 107q37 0 51 -25q33 -57 39 -63q63 2 133 117q64 106 64 174q0 18 -37 90q-41 80 -70 80q-12 0 -182 -33v41q0 12 13.5 52 t13.5 56q0 31 9 111t9 88q0 37 -172 117q-193 92 -205 102l-546 -415zM301 498v432q80 -78 160 -158q135 -145 135 -209v-303q-297 211 -295 238zM319 952q23 31 201 156q170 121 176 121q10 0 11 -6q0 -2 -2.5 -6.5t-2.5 -6.5q0 -4 11 -4q12 0 55 45q59 61 82 78l45 -31 q-279 -184 -496 -362q35 -59 82 -59q14 0 13 -9q-6 -10 -2 -14q244 246 495 385q12 -4 29 -29q29 -41 33 -45q-4 0 -26 9.5t-36 9.5q-16 0 -174 -140q-250 -221 -260 -231q16 -29 47 -52.5t55 -17.5q102 106 207 215q147 154 246 203q19 -14 29 -14q-78 -100 -248 -258 q-137 -127 -277 -256zM334 586q16 -66 10 -84q29 8 82 -31q27 16 59 33l2 53q-10 12 -29.5 21.5t-19.5 13.5q0 14 5.5 55t5.5 58q-2 -2 -19 10q0 -47 -6 -113q-61 -2 -90 -16zM354 555l4 8q37 -8 64 -24q25 12 45 14l2 -6q-14 -2 -41 -15v-40h-6l-2 36q-18 10 -66 27z M377 571q27 2 26 13q0 -2 18.5 -7.5t18.5 -7.5q0 2 -16 -10q-4 0 -22.5 6t-24.5 6zM502 920q0 33 10 38q111 94 346 291q0 -12 25 -39q-240 -174 -381 -290zM608 489q0 80 2 115q295 291 414 303q0 -4 12.5 -15.5t12.5 -27.5q0 -12 -23 -90q-25 -88 -31 -115q-6 -35 -67 -92 q-78 -72 -86 -86q-14 -37 -54 -96q-39 -43 -165 -147q0 45 -7.5 145t-7.5 106zM666 801q20 35 108 131q68 74 72 112q72 78 123 95q0 -25 14 -37q-104 -106 -317 -301zM883 319q32 21 110 -20l-28 -29q-8 8 -27 6q-20 -2 -29 -18q0 4 7.5 18.5t7.5 24.5q0 6 -2 12 q-16 -14 -39 6z" />
<glyph unicode="(" horiz-adv-x="1452" d="M72 127l633 502l-631 346l968 -101l-673 746l854 -344l-217 1081l479 -553l-37 -61l-297 336l176 -922l-696 281l590 -656l-801 84l414 -225l-512 -408l792 107l-96 -686l426 229l33 -63l-551 -295l104 731z" />
<glyph unicode=")" horiz-adv-x="1986" d="M-35 -176l39 59l438 -286l-59 466l756 -157l-889 559l1147 -23l-1004 344l473 519l-811 -244l291 883l-352 -215v88l512 307l-324 -950l914 274l-576 -629l1333 -457l-1347 27l1010 -635l-1049 219l65 -522z" />
<glyph unicode="*" horiz-adv-x="1609" d="M16 809q0 311 221.5 532.5t532.5 221.5q313 0 533.5 -221.5t220.5 -532.5q0 -313 -220.5 -533.5t-533.5 -220.5q-311 0 -532.5 220.5t-221.5 533.5zM119 809q0 -270 190.5 -460.5t460.5 -190.5t460.5 190.5t190.5 460.5t-190.5 460.5t-460.5 190.5t-460.5 -190.5 t-190.5 -460.5zM205 545l20 22q57 -57 105 -57q31 0 57 27l563 563q-88 88 -116 110q-68 51 -119 43q-45 -6 -133 -61l-21 18l209 209l612 -612l-208 -209l-19 20q68 94 68 156q0 53 -84 137l-78 78l-561 -563q-29 -27 -29 -59q0 -45 57 -103l-20 -20z" />
<glyph unicode="+" d="M0 786q0 338 236.5 578t572.5 240q334 0 570.5 -240t236.5 -578t-236.5 -576.5t-570.5 -238.5q-336 0 -572.5 239t-236.5 576zM61 786q0 -313 219.5 -533t528.5 -220q307 0 526 220t219 533t-219 534.5t-526 221.5q-309 0 -528.5 -221t-219.5 -535zM264 506 q-2 -39 17 -53q68 -43 176 -121q70 -53 82 -66q41 -35 61 -61h37q86 86 257 238.5t249 226.5q6 8 11 36.5t13 34.5q43 33 64 37q-6 -2 49 -2q121 0 121 -127q0 -51 -50.5 -140t-84.5 -97q-12 33 -23.5 61.5t-66.5 28.5q-53 0 -118 -47t-126 -97q-49 0 -76 -63q16 -2 16 -12 q0 -8 -18 -29l-25 -25q18 -6 35 10.5t25 16.5q-2 -8 20 -14q-18 -20 -22 -37q4 -2 8 -2q6 0 39 31.5t72 41.5q8 0 8 13q0 12 -27 73q111 106 172 107q37 0 51 -25q33 -57 39 -63q63 2 133 117q64 106 64 174q0 18 -37 90q-41 80 -70 80q-12 0 -182 -33v41q0 12 13.5 52 t13.5 56q0 31 9 111t9 88q0 37 -172 117q-193 92 -205 102l-546 -415zM301 498v432q80 -78 160 -158q135 -145 135 -209v-303q-297 211 -295 238zM319 952q23 31 201 156q170 121 176 121q10 0 11 -6q0 -2 -2.5 -6.5t-2.5 -6.5q0 -4 11 -4q12 0 55 45q59 61 82 78l45 -31 q-279 -184 -496 -362q35 -59 82 -59q14 0 13 -9q-6 -10 -2 -14q244 246 495 385q12 -4 29 -29q29 -41 33 -45q-4 0 -26 9.5t-36 9.5q-16 0 -174 -140q-250 -221 -260 -231q16 -29 47 -52.5t55 -17.5q102 106 207 215q147 154 246 203q19 -14 29 -14q-78 -100 -248 -258 q-137 -127 -277 -256zM334 586q16 -66 10 -84q29 8 82 -31q27 16 59 33l2 53q-10 12 -29.5 21.5t-19.5 13.5q0 14 5.5 55t5.5 58q-2 -2 -19 10q0 -47 -6 -113q-61 -2 -90 -16zM354 555l4 8q37 -8 64 -24q25 12 45 14l2 -6q-14 -2 -41 -15v-40h-6l-2 36q-18 10 -66 27z M377 571q27 2 26 13q0 -2 18.5 -7.5t18.5 -7.5q0 2 -16 -10q-4 0 -22.5 6t-24.5 6zM502 920q0 33 10 38q111 94 346 291q0 -12 25 -39q-240 -174 -381 -290zM608 489q0 80 2 115q295 291 414 303q0 -4 12.5 -15.5t12.5 -27.5q0 -12 -23 -90q-25 -88 -31 -115q-6 -35 -67 -92 q-78 -72 -86 -86q-14 -37 -54 -96q-39 -43 -165 -147q0 45 -7.5 145t-7.5 106zM666 801q20 35 108 131q68 74 72 112q72 78 123 95q0 -25 14 -37q-104 -106 -317 -301zM883 319q32 21 110 -20l-28 -29q-8 8 -27 6q-20 -2 -29 -18q0 4 7.5 18.5t7.5 24.5q0 6 -2 12 q-16 -14 -39 6z" />
<glyph unicode="," d="M31 786q0 326 228 556.5t550 230.5t549 -230.5t227 -556.5t-227.5 -555t-548.5 -229q-322 0 -550 229.5t-228 554.5zM258 512q0 -35 29 -59q63 -37 170 -109q100 -80 143 -139h37q86 86 257 238.5t249 226.5q6 8 11 36.5t13 34.5q43 33 64 37q-6 -2 49 -2q121 0 121 -127 q0 -51 -50.5 -140t-84.5 -97q-12 33 -23.5 61.5t-66.5 28.5q-53 0 -118 -47t-126 -97q-49 0 -76 -63q16 -2 16 -12q0 -8 -18 -29l-25 -25q18 -6 35 10.5t25 16.5q-2 -8 20 -14q-18 -20 -22 -37q4 -2 8 -2q6 0 39 31.5t72 41.5q8 0 8 13q0 12 -27 73q111 106 172 107 q37 0 51 -25q33 -57 39 -63q63 2 133 117q64 106 64 174q0 18 -37 90q-41 80 -70 80q-12 0 -182 -33v41q0 12 13.5 52t13.5 56q0 31 9 111t9 88q0 37 -172 117q-193 92 -205 102l-546 -415zM301 498v432q76 -78 154 -156q129 -143 127 -207l14 -307q-297 211 -295 238z M319 952q23 31 201 156q170 121 176 121q10 0 11 -6q0 -2 -2.5 -6.5t-2.5 -6.5q0 -4 11 -4q12 0 55 45q59 61 82 78l45 -31q-279 -184 -496 -362q35 -59 82 -59q14 0 13 -9q-6 -10 -2 -14q244 246 495 385q12 -4 29 -29q29 -41 33 -45q-4 0 -26 9.5t-36 9.5q-16 0 -174 -140 q-250 -221 -260 -231q16 -29 47 -52.5t55 -17.5q102 106 207 215q147 154 246 203q19 -14 29 -14q-78 -100 -248 -258q-137 -127 -277 -256zM334 586q16 -66 10 -84q29 8 82 -31q27 16 59 33l2 53q-10 12 -29.5 21.5t-19.5 13.5q0 14 5.5 55t5.5 58q-2 -2 -19 10 q0 -47 -6 -113q-61 -2 -90 -16zM354 555l4 8q37 -8 64 -24q25 12 45 14l2 -6q-14 -2 -41 -15v-40h-6l-2 36q-18 10 -66 27zM377 571q27 2 26 13q0 -2 18.5 -7.5t18.5 -7.5q0 2 -16 -10q-4 0 -22.5 6t-24.5 6zM502 920q0 33 10 38q111 94 346 291q0 -12 25 -39 q-240 -174 -381 -290zM608 489q0 80 2 115q295 291 414 303q0 -4 12.5 -15.5t12.5 -27.5q0 -12 -23 -90q-25 -88 -31 -115q-6 -35 -67 -92q-78 -72 -86 -86q-14 -37 -54 -96q-39 -43 -165 -147q0 45 -7.5 145t-7.5 106zM666 801q20 35 108 131q68 74 72 112q72 78 123 95 q0 -25 14 -37q-104 -106 -317 -301zM883 319q32 21 110 -20l-28 -29q-8 8 -27 6q-20 -2 -29 -18q0 4 7.5 18.5t7.5 24.5q0 6 -2 12q-16 -14 -39 6z" />
<glyph unicode="-" d="M0 786q0 338 236.5 578t572.5 240q334 0 570.5 -240t236.5 -578t-236.5 -576.5t-570.5 -238.5q-336 0 -572.5 239t-236.5 576zM61 786q0 -313 219.5 -533t528.5 -220q307 0 526 220t219 533t-219 534.5t-526 221.5q-309 0 -528.5 -221t-219.5 -535zM264 506 q-2 -39 17 -53q68 -43 176 -121q70 -53 82 -66q41 -35 61 -61h37q86 86 257 238.5t249 226.5q6 8 11 36.5t13 34.5q43 33 64 37q-6 -2 49 -2q121 0 121 -127q0 -51 -50.5 -140t-84.5 -97q-12 33 -23.5 61.5t-66.5 28.5q-53 0 -118 -47t-126 -97q-49 0 -76 -63q16 -2 16 -12 q0 -8 -18 -29l-25 -25q18 -6 35 10.5t25 16.5q-2 -8 20 -14q-18 -20 -22 -37q4 -2 8 -2q6 0 39 31.5t72 41.5q8 0 8 13q0 12 -27 73q111 106 172 107q37 0 51 -25q33 -57 39 -63q63 2 133 117q64 106 64 174q0 18 -37 90q-41 80 -70 80q-12 0 -182 -33v41q0 12 13.5 52 t13.5 56q0 31 9 111t9 88q0 37 -172 117q-193 92 -205 102l-546 -415zM301 498v432q80 -78 160 -158q135 -145 135 -209v-303q-297 211 -295 238zM319 952q23 31 201 156q170 121 176 121q10 0 11 -6q0 -2 -2.5 -6.5t-2.5 -6.5q0 -4 11 -4q12 0 55 45q59 61 82 78l45 -31 q-279 -184 -496 -362q35 -59 82 -59q14 0 13 -9q-6 -10 -2 -14q244 246 495 385q12 -4 29 -29q29 -41 33 -45q-4 0 -26 9.5t-36 9.5q-16 0 -174 -140q-250 -221 -260 -231q16 -29 47 -52.5t55 -17.5q102 106 207 215q147 154 246 203q19 -14 29 -14q-78 -100 -248 -258 q-137 -127 -277 -256zM334 586q16 -66 10 -84q29 8 82 -31q27 16 59 33l2 53q-10 12 -29.5 21.5t-19.5 13.5q0 14 5.5 55t5.5 58q-2 -2 -19 10q0 -47 -6 -113q-61 -2 -90 -16zM354 555l4 8q37 -8 64 -24q25 12 45 14l2 -6q-14 -2 -41 -15v-40h-6l-2 36q-18 10 -66 27z M377 571q27 2 26 13q0 -2 18.5 -7.5t18.5 -7.5q0 2 -16 -10q-4 0 -22.5 6t-24.5 6zM502 920q0 33 10 38q111 94 346 291q0 -12 25 -39q-240 -174 -381 -290zM608 489q0 80 2 115q295 291 414 303q0 -4 12.5 -15.5t12.5 -27.5q0 -12 -23 -90q-25 -88 -31 -115q-6 -35 -67 -92 q-78 -72 -86 -86q-14 -37 -54 -96q-39 -43 -165 -147q0 45 -7.5 145t-7.5 106zM666 801q20 35 108 131q68 74 72 112q72 78 123 95q0 -25 14 -37q-104 -106 -317 -301zM883 319q32 21 110 -20l-28 -29q-8 8 -27 6q-20 -2 -29 -18q0 4 7.5 18.5t7.5 24.5q0 6 -2 12 q-16 -14 -39 6z" />
<glyph unicode="." d="M31 786q0 326 228 556.5t550 230.5t549 -230.5t227 -556.5t-227.5 -555t-548.5 -229q-322 0 -550 229.5t-228 554.5zM258 512q0 -35 29 -59q63 -37 170 -109q100 -80 143 -139h37q86 86 257 238.5t249 226.5q6 8 11 36.5t13 34.5q43 33 64 37q-6 -2 49 -2q121 0 121 -127 q0 -51 -50.5 -140t-84.5 -97q-12 33 -23.5 61.5t-66.5 28.5q-53 0 -118 -47t-126 -97q-49 0 -76 -63q16 -2 16 -12q0 -8 -18 -29l-25 -25q18 -6 35 10.5t25 16.5q-2 -8 20 -14q-18 -20 -22 -37q4 -2 8 -2q6 0 39 31.5t72 41.5q8 0 8 13q0 12 -27 73q111 106 172 107 q37 0 51 -25q33 -57 39 -63q63 2 133 117q64 106 64 174q0 18 -37 90q-41 80 -70 80q-12 0 -182 -33v41q0 12 13.5 52t13.5 56q0 31 9 111t9 88q0 37 -172 117q-193 92 -205 102l-546 -415zM301 498v432q76 -78 154 -156q129 -143 127 -207l14 -307q-297 211 -295 238z M319 952q23 31 201 156q170 121 176 121q10 0 11 -6q0 -2 -2.5 -6.5t-2.5 -6.5q0 -4 11 -4q12 0 55 45q59 61 82 78l45 -31q-279 -184 -496 -362q35 -59 82 -59q14 0 13 -9q-6 -10 -2 -14q244 246 495 385q12 -4 29 -29q29 -41 33 -45q-4 0 -26 9.5t-36 9.5q-16 0 -174 -140 q-250 -221 -260 -231q16 -29 47 -52.5t55 -17.5q102 106 207 215q147 154 246 203q19 -14 29 -14q-78 -100 -248 -258q-137 -127 -277 -256zM334 586q16 -66 10 -84q29 8 82 -31q27 16 59 33l2 53q-10 12 -29.5 21.5t-19.5 13.5q0 14 5.5 55t5.5 58q-2 -2 -19 10 q0 -47 -6 -113q-61 -2 -90 -16zM354 555l4 8q37 -8 64 -24q25 12 45 14l2 -6q-14 -2 -41 -15v-40h-6l-2 36q-18 10 -66 27zM377 571q27 2 26 13q0 -2 18.5 -7.5t18.5 -7.5q0 2 -16 -10q-4 0 -22.5 6t-24.5 6zM502 920q0 33 10 38q111 94 346 291q0 -12 25 -39 q-240 -174 -381 -290zM608 489q0 80 2 115q295 291 414 303q0 -4 12.5 -15.5t12.5 -27.5q0 -12 -23 -90q-25 -88 -31 -115q-6 -35 -67 -92q-78 -72 -86 -86q-14 -37 -54 -96q-39 -43 -165 -147q0 45 -7.5 145t-7.5 106zM666 801q20 35 108 131q68 74 72 112q72 78 123 95 q0 -25 14 -37q-104 -106 -317 -301zM883 319q32 21 110 -20l-28 -29q-8 8 -27 6q-20 -2 -29 -18q0 4 7.5 18.5t7.5 24.5q0 6 -2 12q-16 -14 -39 6z" />
<glyph unicode="/" d="M0 786q0 338 236.5 578t572.5 240q334 0 570.5 -240t236.5 -578t-236.5 -576.5t-570.5 -238.5q-336 0 -572.5 239t-236.5 576zM61 786q0 -313 219.5 -533t528.5 -220q307 0 526 220t219 533t-219 534.5t-526 221.5q-309 0 -528.5 -221t-219.5 -535zM264 506 q-2 -39 17 -53q68 -43 176 -121q70 -53 82 -66q41 -35 61 -61h37q86 86 257 238.5t249 226.5q6 8 11 36.5t13 34.5q43 33 64 37q-6 -2 49 -2q121 0 121 -127q0 -51 -50.5 -140t-84.5 -97q-12 33 -23.5 61.5t-66.5 28.5q-53 0 -118 -47t-126 -97q-49 0 -76 -63q16 -2 16 -12 q0 -8 -18 -29l-25 -25q18 -6 35 10.5t25 16.5q-2 -8 20 -14q-18 -20 -22 -37q4 -2 8 -2q6 0 39 31.5t72 41.5q8 0 8 13q0 12 -27 73q111 106 172 107q37 0 51 -25q33 -57 39 -63q63 2 133 117q64 106 64 174q0 18 -37 90q-41 80 -70 80q-12 0 -182 -33v41q0 12 13.5 52 t13.5 56q0 31 9 111t9 88q0 37 -172 117q-193 92 -205 102l-546 -415zM301 498v432q80 -78 160 -158q135 -145 135 -209v-303q-297 211 -295 238zM319 952q23 31 201 156q170 121 176 121q10 0 11 -6q0 -2 -2.5 -6.5t-2.5 -6.5q0 -4 11 -4q12 0 55 45q59 61 82 78l45 -31 q-279 -184 -496 -362q35 -59 82 -59q14 0 13 -9q-6 -10 -2 -14q244 246 495 385q12 -4 29 -29q29 -41 33 -45q-4 0 -26 9.5t-36 9.5q-16 0 -174 -140q-250 -221 -260 -231q16 -29 47 -52.5t55 -17.5q102 106 207 215q147 154 246 203q19 -14 29 -14q-78 -100 -248 -258 q-137 -127 -277 -256zM334 586q16 -66 10 -84q29 8 82 -31q27 16 59 33l2 53q-10 12 -29.5 21.5t-19.5 13.5q0 14 5.5 55t5.5 58q-2 -2 -19 10q0 -47 -6 -113q-61 -2 -90 -16zM354 555l4 8q37 -8 64 -24q25 12 45 14l2 -6q-14 -2 -41 -15v-40h-6l-2 36q-18 10 -66 27z M377 571q27 2 26 13q0 -2 18.5 -7.5t18.5 -7.5q0 2 -16 -10q-4 0 -22.5 6t-24.5 6zM502 920q0 33 10 38q111 94 346 291q0 -12 25 -39q-240 -174 -381 -290zM608 489q0 80 2 115q295 291 414 303q0 -4 12.5 -15.5t12.5 -27.5q0 -12 -23 -90q-25 -88 -31 -115q-6 -35 -67 -92 q-78 -72 -86 -86q-14 -37 -54 -96q-39 -43 -165 -147q0 45 -7.5 145t-7.5 106zM666 801q20 35 108 131q68 74 72 112q72 78 123 95q0 -25 14 -37q-104 -106 -317 -301zM883 319q32 21 110 -20l-28 -29q-8 8 -27 6q-20 -2 -29 -18q0 4 7.5 18.5t7.5 24.5q0 6 -2 12 q-16 -14 -39 6z" />
<glyph unicode="0" d="M0 786q0 338 236.5 578t572.5 240q334 0 570.5 -240t236.5 -578t-236.5 -576.5t-570.5 -238.5q-336 0 -572.5 239t-236.5 576zM61 786q0 -313 219.5 -533t528.5 -220q307 0 526 220t219 533t-219 534.5t-526 221.5q-309 0 -528.5 -221t-219.5 -535zM264 506 q-2 -39 17 -53q68 -43 176 -121q70 -53 82 -66q41 -35 61 -61h37q86 86 257 238.5t249 226.5q6 8 11 36.5t13 34.5q43 33 64 37q-6 -2 49 -2q121 0 121 -127q0 -51 -50.5 -140t-84.5 -97q-12 33 -23.5 61.5t-66.5 28.5q-53 0 -118 -47t-126 -97q-49 0 -76 -63q16 -2 16 -12 q0 -8 -18 -29l-25 -25q18 -6 35 10.5t25 16.5q-2 -8 20 -14q-18 -20 -22 -37q4 -2 8 -2q6 0 39 31.5t72 41.5q8 0 8 13q0 12 -27 73q111 106 172 107q37 0 51 -25q33 -57 39 -63q63 2 133 117q64 106 64 174q0 18 -37 90q-41 80 -70 80q-12 0 -182 -33v41q0 12 13.5 52 t13.5 56q0 31 9 111t9 88q0 37 -172 117q-193 92 -205 102l-546 -415zM301 498v432q80 -78 160 -158q135 -145 135 -209v-303q-297 211 -295 238zM319 952q23 31 201 156q170 121 176 121q10 0 11 -6q0 -2 -2.5 -6.5t-2.5 -6.5q0 -4 11 -4q12 0 55 45q59 61 82 78l45 -31 q-279 -184 -496 -362q35 -59 82 -59q14 0 13 -9q-6 -10 -2 -14q244 246 495 385q12 -4 29 -29q29 -41 33 -45q-4 0 -26 9.5t-36 9.5q-16 0 -174 -140q-250 -221 -260 -231q16 -29 47 -52.5t55 -17.5q102 106 207 215q147 154 246 203q19 -14 29 -14q-78 -100 -248 -258 q-137 -127 -277 -256zM334 586q16 -66 10 -84q29 8 82 -31q27 16 59 33l2 53q-10 12 -29.5 21.5t-19.5 13.5q0 14 5.5 55t5.5 58q-2 -2 -19 10q0 -47 -6 -113q-61 -2 -90 -16zM354 555l4 8q37 -8 64 -24q25 12 45 14l2 -6q-14 -2 -41 -15v-40h-6l-2 36q-18 10 -66 27z M377 571q27 2 26 13q0 -2 18.5 -7.5t18.5 -7.5q0 2 -16 -10q-4 0 -22.5 6t-24.5 6zM502 920q0 33 10 38q111 94 346 291q0 -12 25 -39q-240 -174 -381 -290zM608 489q0 80 2 115q295 291 414 303q0 -4 12.5 -15.5t12.5 -27.5q0 -12 -23 -90q-25 -88 -31 -115q-6 -35 -67 -92 q-78 -72 -86 -86q-14 -37 -54 -96q-39 -43 -165 -147q0 45 -7.5 145t-7.5 106zM666 801q20 35 108 131q68 74 72 112q72 78 123 95q0 -25 14 -37q-104 -106 -317 -301zM883 319q32 21 110 -20l-28 -29q-8 8 -27 6q-20 -2 -29 -18q0 4 7.5 18.5t7.5 24.5q0 6 -2 12 q-16 -14 -39 6z" />
<glyph unicode="1" d="M31 786q0 326 228 556.5t550 230.5t549 -230.5t227 -556.5t-227.5 -555t-548.5 -229q-322 0 -550 229.5t-228 554.5zM258 512q0 -35 29 -59q63 -37 170 -109q100 -80 143 -139h37q86 86 257 238.5t249 226.5q6 8 11 36.5t13 34.5q43 33 64 37q-6 -2 49 -2q121 0 121 -127 q0 -51 -50.5 -140t-84.5 -97q-12 33 -23.5 61.5t-66.5 28.5q-53 0 -118 -47t-126 -97q-49 0 -76 -63q16 -2 16 -12q0 -8 -18 -29l-25 -25q18 -6 35 10.5t25 16.5q-2 -8 20 -14q-18 -20 -22 -37q4 -2 8 -2q6 0 39 31.5t72 41.5q8 0 8 13q0 12 -27 73q111 106 172 107 q37 0 51 -25q33 -57 39 -63q63 2 133 117q64 106 64 174q0 18 -37 90q-41 80 -70 80q-12 0 -182 -33v41q0 12 13.5 52t13.5 56q0 31 9 111t9 88q0 37 -172 117q-193 92 -205 102l-546 -415zM301 498v432q76 -78 154 -156q129 -143 127 -207l14 -307q-297 211 -295 238z M319 952q23 31 201 156q170 121 176 121q10 0 11 -6q0 -2 -2.5 -6.5t-2.5 -6.5q0 -4 11 -4q12 0 55 45q59 61 82 78l45 -31q-279 -184 -496 -362q35 -59 82 -59q14 0 13 -9q-6 -10 -2 -14q244 246 495 385q12 -4 29 -29q29 -41 33 -45q-4 0 -26 9.5t-36 9.5q-16 0 -174 -140 q-250 -221 -260 -231q16 -29 47 -52.5t55 -17.5q102 106 207 215q147 154 246 203q19 -14 29 -14q-78 -100 -248 -258q-137 -127 -277 -256zM334 586q16 -66 10 -84q29 8 82 -31q27 16 59 33l2 53q-10 12 -29.5 21.5t-19.5 13.5q0 14 5.5 55t5.5 58q-2 -2 -19 10 q0 -47 -6 -113q-61 -2 -90 -16zM354 555l4 8q37 -8 64 -24q25 12 45 14l2 -6q-14 -2 -41 -15v-40h-6l-2 36q-18 10 -66 27zM377 571q27 2 26 13q0 -2 18.5 -7.5t18.5 -7.5q0 2 -16 -10q-4 0 -22.5 6t-24.5 6zM502 920q0 33 10 38q111 94 346 291q0 -12 25 -39 q-240 -174 -381 -290zM608 489q0 80 2 115q295 291 414 303q0 -4 12.5 -15.5t12.5 -27.5q0 -12 -23 -90q-25 -88 -31 -115q-6 -35 -67 -92q-78 -72 -86 -86q-14 -37 -54 -96q-39 -43 -165 -147q0 45 -7.5 145t-7.5 106zM666 801q20 35 108 131q68 74 72 112q72 78 123 95 q0 -25 14 -37q-104 -106 -317 -301zM883 319q32 21 110 -20l-28 -29q-8 8 -27 6q-20 -2 -29 -18q0 4 7.5 18.5t7.5 24.5q0 6 -2 12q-16 -14 -39 6z" />
<glyph unicode="2" d="M0 786q0 338 236.5 578t572.5 240q334 0 570.5 -240t236.5 -578t-236.5 -576.5t-570.5 -238.5q-336 0 -572.5 239t-236.5 576zM61 786q0 -313 219.5 -533t528.5 -220q307 0 526 220t219 533t-219 534.5t-526 221.5q-309 0 -528.5 -221t-219.5 -535zM264 506 q-2 -39 17 -53q68 -43 176 -121q70 -53 82 -66q41 -35 61 -61h37q86 86 257 238.5t249 226.5q6 8 11 36.5t13 34.5q43 33 64 37q-6 -2 49 -2q121 0 121 -127q0 -51 -50.5 -140t-84.5 -97q-12 33 -23.5 61.5t-66.5 28.5q-53 0 -118 -47t-126 -97q-49 0 -76 -63q16 -2 16 -12 q0 -8 -18 -29l-25 -25q18 -6 35 10.5t25 16.5q-2 -8 20 -14q-18 -20 -22 -37q4 -2 8 -2q6 0 39 31.5t72 41.5q8 0 8 13q0 12 -27 73q111 106 172 107q37 0 51 -25q33 -57 39 -63q63 2 133 117q64 106 64 174q0 18 -37 90q-41 80 -70 80q-12 0 -182 -33v41q0 12 13.5 52 t13.5 56q0 31 9 111t9 88q0 37 -172 117q-193 92 -205 102l-546 -415zM301 498v432q80 -78 160 -158q135 -145 135 -209v-303q-297 211 -295 238zM319 952q23 31 201 156q170 121 176 121q10 0 11 -6q0 -2 -2.5 -6.5t-2.5 -6.5q0 -4 11 -4q12 0 55 45q59 61 82 78l45 -31 q-279 -184 -496 -362q35 -59 82 -59q14 0 13 -9q-6 -10 -2 -14q244 246 495 385q12 -4 29 -29q29 -41 33 -45q-4 0 -26 9.5t-36 9.5q-16 0 -174 -140q-250 -221 -260 -231q16 -29 47 -52.5t55 -17.5q102 106 207 215q147 154 246 203q19 -14 29 -14q-78 -100 -248 -258 q-137 -127 -277 -256zM334 586q16 -66 10 -84q29 8 82 -31q27 16 59 33l2 53q-10 12 -29.5 21.5t-19.5 13.5q0 14 5.5 55t5.5 58q-2 -2 -19 10q0 -47 -6 -113q-61 -2 -90 -16zM354 555l4 8q37 -8 64 -24q25 12 45 14l2 -6q-14 -2 -41 -15v-40h-6l-2 36q-18 10 -66 27z M377 571q27 2 26 13q0 -2 18.5 -7.5t18.5 -7.5q0 2 -16 -10q-4 0 -22.5 6t-24.5 6zM502 920q0 33 10 38q111 94 346 291q0 -12 25 -39q-240 -174 -381 -290zM608 489q0 80 2 115q295 291 414 303q0 -4 12.5 -15.5t12.5 -27.5q0 -12 -23 -90q-25 -88 -31 -115q-6 -35 -67 -92 q-78 -72 -86 -86q-14 -37 -54 -96q-39 -43 -165 -147q0 45 -7.5 145t-7.5 106zM666 801q20 35 108 131q68 74 72 112q72 78 123 95q0 -25 14 -37q-104 -106 -317 -301zM883 319q32 21 110 -20l-28 -29q-8 8 -27 6q-20 -2 -29 -18q0 4 7.5 18.5t7.5 24.5q0 6 -2 12 q-16 -14 -39 6z" />
<glyph unicode="3" d="M31 786q0 326 228 556.5t550 230.5t549 -230.5t227 -556.5t-227.5 -555t-548.5 -229q-322 0 -550 229.5t-228 554.5zM258 512q0 -35 29 -59q63 -37 170 -109q100 -80 143 -139h37q86 86 257 238.5t249 226.5q6 8 11 36.5t13 34.5q43 33 64 37q-6 -2 49 -2q121 0 121 -127 q0 -51 -50.5 -140t-84.5 -97q-12 33 -23.5 61.5t-66.5 28.5q-53 0 -118 -47t-126 -97q-49 0 -76 -63q16 -2 16 -12q0 -8 -18 -29l-25 -25q18 -6 35 10.5t25 16.5q-2 -8 20 -14q-18 -20 -22 -37q4 -2 8 -2q6 0 39 31.5t72 41.5q8 0 8 13q0 12 -27 73q111 106 172 107 q37 0 51 -25q33 -57 39 -63q63 2 133 117q64 106 64 174q0 18 -37 90q-41 80 -70 80q-12 0 -182 -33v41q0 12 13.5 52t13.5 56q0 31 9 111t9 88q0 37 -172 117q-193 92 -205 102l-546 -415zM301 498v432q76 -78 154 -156q129 -143 127 -207l14 -307q-297 211 -295 238z M319 952q23 31 201 156q170 121 176 121q10 0 11 -6q0 -2 -2.5 -6.5t-2.5 -6.5q0 -4 11 -4q12 0 55 45q59 61 82 78l45 -31q-279 -184 -496 -362q35 -59 82 -59q14 0 13 -9q-6 -10 -2 -14q244 246 495 385q12 -4 29 -29q29 -41 33 -45q-4 0 -26 9.5t-36 9.5q-16 0 -174 -140 q-250 -221 -260 -231q16 -29 47 -52.5t55 -17.5q102 106 207 215q147 154 246 203q19 -14 29 -14q-78 -100 -248 -258q-137 -127 -277 -256zM334 586q16 -66 10 -84q29 8 82 -31q27 16 59 33l2 53q-10 12 -29.5 21.5t-19.5 13.5q0 14 5.5 55t5.5 58q-2 -2 -19 10 q0 -47 -6 -113q-61 -2 -90 -16zM354 555l4 8q37 -8 64 -24q25 12 45 14l2 -6q-14 -2 -41 -15v-40h-6l-2 36q-18 10 -66 27zM377 571q27 2 26 13q0 -2 18.5 -7.5t18.5 -7.5q0 2 -16 -10q-4 0 -22.5 6t-24.5 6zM502 920q0 33 10 38q111 94 346 291q0 -12 25 -39 q-240 -174 -381 -290zM608 489q0 80 2 115q295 291 414 303q0 -4 12.5 -15.5t12.5 -27.5q0 -12 -23 -90q-25 -88 -31 -115q-6 -35 -67 -92q-78 -72 -86 -86q-14 -37 -54 -96q-39 -43 -165 -147q0 45 -7.5 145t-7.5 106zM666 801q20 35 108 131q68 74 72 112q72 78 123 95 q0 -25 14 -37q-104 -106 -317 -301zM883 319q32 21 110 -20l-28 -29q-8 8 -27 6q-20 -2 -29 -18q0 4 7.5 18.5t7.5 24.5q0 6 -2 12q-16 -14 -39 6z" />
<glyph unicode="4" d="M0 786q0 338 236.5 578t572.5 240q334 0 570.5 -240t236.5 -578t-236.5 -576.5t-570.5 -238.5q-336 0 -572.5 239t-236.5 576zM61 786q0 -313 219.5 -533t528.5 -220q307 0 526 220t219 533t-219 534.5t-526 221.5q-309 0 -528.5 -221t-219.5 -535zM264 506 q-2 -39 17 -53q68 -43 176 -121q70 -53 82 -66q41 -35 61 -61h37q86 86 257 238.5t249 226.5q6 8 11 36.5t13 34.5q43 33 64 37q-6 -2 49 -2q121 0 121 -127q0 -51 -50.5 -140t-84.5 -97q-12 33 -23.5 61.5t-66.5 28.5q-53 0 -118 -47t-126 -97q-49 0 -76 -63q16 -2 16 -12 q0 -8 -18 -29l-25 -25q18 -6 35 10.5t25 16.5q-2 -8 20 -14q-18 -20 -22 -37q4 -2 8 -2q6 0 39 31.5t72 41.5q8 0 8 13q0 12 -27 73q111 106 172 107q37 0 51 -25q33 -57 39 -63q63 2 133 117q64 106 64 174q0 18 -37 90q-41 80 -70 80q-12 0 -182 -33v41q0 12 13.5 52 t13.5 56q0 31 9 111t9 88q0 37 -172 117q-193 92 -205 102l-546 -415zM301 498v432q80 -78 160 -158q135 -145 135 -209v-303q-297 211 -295 238zM319 952q23 31 201 156q170 121 176 121q10 0 11 -6q0 -2 -2.5 -6.5t-2.5 -6.5q0 -4 11 -4q12 0 55 45q59 61 82 78l45 -31 q-279 -184 -496 -362q35 -59 82 -59q14 0 13 -9q-6 -10 -2 -14q244 246 495 385q12 -4 29 -29q29 -41 33 -45q-4 0 -26 9.5t-36 9.5q-16 0 -174 -140q-250 -221 -260 -231q16 -29 47 -52.5t55 -17.5q102 106 207 215q147 154 246 203q19 -14 29 -14q-78 -100 -248 -258 q-137 -127 -277 -256zM334 586q16 -66 10 -84q29 8 82 -31q27 16 59 33l2 53q-10 12 -29.5 21.5t-19.5 13.5q0 14 5.5 55t5.5 58q-2 -2 -19 10q0 -47 -6 -113q-61 -2 -90 -16zM354 555l4 8q37 -8 64 -24q25 12 45 14l2 -6q-14 -2 -41 -15v-40h-6l-2 36q-18 10 -66 27z M377 571q27 2 26 13q0 -2 18.5 -7.5t18.5 -7.5q0 2 -16 -10q-4 0 -22.5 6t-24.5 6zM502 920q0 33 10 38q111 94 346 291q0 -12 25 -39q-240 -174 -381 -290zM608 489q0 80 2 115q295 291 414 303q0 -4 12.5 -15.5t12.5 -27.5q0 -12 -23 -90q-25 -88 -31 -115q-6 -35 -67 -92 q-78 -72 -86 -86q-14 -37 -54 -96q-39 -43 -165 -147q0 45 -7.5 145t-7.5 106zM666 801q20 35 108 131q68 74 72 112q72 78 123 95q0 -25 14 -37q-104 -106 -317 -301zM883 319q32 21 110 -20l-28 -29q-8 8 -27 6q-20 -2 -29 -18q0 4 7.5 18.5t7.5 24.5q0 6 -2 12 q-16 -14 -39 6z" />
<glyph unicode="5" d="M31 786q0 326 228 556.5t550 230.5t549 -230.5t227 -556.5t-227.5 -555t-548.5 -229q-322 0 -550 229.5t-228 554.5zM258 512q0 -35 29 -59q63 -37 170 -109q100 -80 143 -139h37q86 86 257 238.5t249 226.5q6 8 11 36.5t13 34.5q43 33 64 37q-6 -2 49 -2q121 0 121 -127 q0 -51 -50.5 -140t-84.5 -97q-12 33 -23.5 61.5t-66.5 28.5q-53 0 -118 -47t-126 -97q-49 0 -76 -63q16 -2 16 -12q0 -8 -18 -29l-25 -25q18 -6 35 10.5t25 16.5q-2 -8 20 -14q-18 -20 -22 -37q4 -2 8 -2q6 0 39 31.5t72 41.5q8 0 8 13q0 12 -27 73q111 106 172 107 q37 0 51 -25q33 -57 39 -63q63 2 133 117q64 106 64 174q0 18 -37 90q-41 80 -70 80q-12 0 -182 -33v41q0 12 13.5 52t13.5 56q0 31 9 111t9 88q0 37 -172 117q-193 92 -205 102l-546 -415zM301 498v432q76 -78 154 -156q129 -143 127 -207l14 -307q-297 211 -295 238z M319 952q23 31 201 156q170 121 176 121q10 0 11 -6q0 -2 -2.5 -6.5t-2.5 -6.5q0 -4 11 -4q12 0 55 45q59 61 82 78l45 -31q-279 -184 -496 -362q35 -59 82 -59q14 0 13 -9q-6 -10 -2 -14q244 246 495 385q12 -4 29 -29q29 -41 33 -45q-4 0 -26 9.5t-36 9.5q-16 0 -174 -140 q-250 -221 -260 -231q16 -29 47 -52.5t55 -17.5q102 106 207 215q147 154 246 203q19 -14 29 -14q-78 -100 -248 -258q-137 -127 -277 -256zM334 586q16 -66 10 -84q29 8 82 -31q27 16 59 33l2 53q-10 12 -29.5 21.5t-19.5 13.5q0 14 5.5 55t5.5 58q-2 -2 -19 10 q0 -47 -6 -113q-61 -2 -90 -16zM354 555l4 8q37 -8 64 -24q25 12 45 14l2 -6q-14 -2 -41 -15v-40h-6l-2 36q-18 10 -66 27zM377 571q27 2 26 13q0 -2 18.5 -7.5t18.5 -7.5q0 2 -16 -10q-4 0 -22.5 6t-24.5 6zM502 920q0 33 10 38q111 94 346 291q0 -12 25 -39 q-240 -174 -381 -290zM608 489q0 80 2 115q295 291 414 303q0 -4 12.5 -15.5t12.5 -27.5q0 -12 -23 -90q-25 -88 -31 -115q-6 -35 -67 -92q-78 -72 -86 -86q-14 -37 -54 -96q-39 -43 -165 -147q0 45 -7.5 145t-7.5 106zM666 801q20 35 108 131q68 74 72 112q72 78 123 95 q0 -25 14 -37q-104 -106 -317 -301zM883 319q32 21 110 -20l-28 -29q-8 8 -27 6q-20 -2 -29 -18q0 4 7.5 18.5t7.5 24.5q0 6 -2 12q-16 -14 -39 6z" />
<glyph unicode="6" d="M0 786q0 338 236.5 578t572.5 240q334 0 570.5 -240t236.5 -578t-236.5 -576.5t-570.5 -238.5q-336 0 -572.5 239t-236.5 576zM61 786q0 -313 219.5 -533t528.5 -220q307 0 526 220t219 533t-219 534.5t-526 221.5q-309 0 -528.5 -221t-219.5 -535zM264 506 q-2 -39 17 -53q68 -43 176 -121q70 -53 82 -66q41 -35 61 -61h37q86 86 257 238.5t249 226.5q6 8 11 36.5t13 34.5q43 33 64 37q-6 -2 49 -2q121 0 121 -127q0 -51 -50.5 -140t-84.5 -97q-12 33 -23.5 61.5t-66.5 28.5q-53 0 -118 -47t-126 -97q-49 0 -76 -63q16 -2 16 -12 q0 -8 -18 -29l-25 -25q18 -6 35 10.5t25 16.5q-2 -8 20 -14q-18 -20 -22 -37q4 -2 8 -2q6 0 39 31.5t72 41.5q8 0 8 13q0 12 -27 73q111 106 172 107q37 0 51 -25q33 -57 39 -63q63 2 133 117q64 106 64 174q0 18 -37 90q-41 80 -70 80q-12 0 -182 -33v41q0 12 13.5 52 t13.5 56q0 31 9 111t9 88q0 37 -172 117q-193 92 -205 102l-546 -415zM301 498v432q80 -78 160 -158q135 -145 135 -209v-303q-297 211 -295 238zM319 952q23 31 201 156q170 121 176 121q10 0 11 -6q0 -2 -2.5 -6.5t-2.5 -6.5q0 -4 11 -4q12 0 55 45q59 61 82 78l45 -31 q-279 -184 -496 -362q35 -59 82 -59q14 0 13 -9q-6 -10 -2 -14q244 246 495 385q12 -4 29 -29q29 -41 33 -45q-4 0 -26 9.5t-36 9.5q-16 0 -174 -140q-250 -221 -260 -231q16 -29 47 -52.5t55 -17.5q102 106 207 215q147 154 246 203q19 -14 29 -14q-78 -100 -248 -258 q-137 -127 -277 -256zM334 586q16 -66 10 -84q29 8 82 -31q27 16 59 33l2 53q-10 12 -29.5 21.5t-19.5 13.5q0 14 5.5 55t5.5 58q-2 -2 -19 10q0 -47 -6 -113q-61 -2 -90 -16zM354 555l4 8q37 -8 64 -24q25 12 45 14l2 -6q-14 -2 -41 -15v-40h-6l-2 36q-18 10 -66 27z M377 571q27 2 26 13q0 -2 18.5 -7.5t18.5 -7.5q0 2 -16 -10q-4 0 -22.5 6t-24.5 6zM502 920q0 33 10 38q111 94 346 291q0 -12 25 -39q-240 -174 -381 -290zM608 489q0 80 2 115q295 291 414 303q0 -4 12.5 -15.5t12.5 -27.5q0 -12 -23 -90q-25 -88 -31 -115q-6 -35 -67 -92 q-78 -72 -86 -86q-14 -37 -54 -96q-39 -43 -165 -147q0 45 -7.5 145t-7.5 106zM666 801q20 35 108 131q68 74 72 112q72 78 123 95q0 -25 14 -37q-104 -106 -317 -301zM883 319q32 21 110 -20l-28 -29q-8 8 -27 6q-20 -2 -29 -18q0 4 7.5 18.5t7.5 24.5q0 6 -2 12 q-16 -14 -39 6z" />
<glyph unicode="7" d="M31 786q0 326 228 556.5t550 230.5t549 -230.5t227 -556.5t-227.5 -555t-548.5 -229q-322 0 -550 229.5t-228 554.5zM258 512q0 -35 29 -59q63 -37 170 -109q100 -80 143 -139h37q86 86 257 238.5t249 226.5q6 8 11 36.5t13 34.5q43 33 64 37q-6 -2 49 -2q121 0 121 -127 q0 -51 -50.5 -140t-84.5 -97q-12 33 -23.5 61.5t-66.5 28.5q-53 0 -118 -47t-126 -97q-49 0 -76 -63q16 -2 16 -12q0 -8 -18 -29l-25 -25q18 -6 35 10.5t25 16.5q-2 -8 20 -14q-18 -20 -22 -37q4 -2 8 -2q6 0 39 31.5t72 41.5q8 0 8 13q0 12 -27 73q111 106 172 107 q37 0 51 -25q33 -57 39 -63q63 2 133 117q64 106 64 174q0 18 -37 90q-41 80 -70 80q-12 0 -182 -33v41q0 12 13.5 52t13.5 56q0 31 9 111t9 88q0 37 -172 117q-193 92 -205 102l-546 -415zM301 498v432q76 -78 154 -156q129 -143 127 -207l14 -307q-297 211 -295 238z M319 952q23 31 201 156q170 121 176 121q10 0 11 -6q0 -2 -2.5 -6.5t-2.5 -6.5q0 -4 11 -4q12 0 55 45q59 61 82 78l45 -31q-279 -184 -496 -362q35 -59 82 -59q14 0 13 -9q-6 -10 -2 -14q244 246 495 385q12 -4 29 -29q29 -41 33 -45q-4 0 -26 9.5t-36 9.5q-16 0 -174 -140 q-250 -221 -260 -231q16 -29 47 -52.5t55 -17.5q102 106 207 215q147 154 246 203q19 -14 29 -14q-78 -100 -248 -258q-137 -127 -277 -256zM334 586q16 -66 10 -84q29 8 82 -31q27 16 59 33l2 53q-10 12 -29.5 21.5t-19.5 13.5q0 14 5.5 55t5.5 58q-2 -2 -19 10 q0 -47 -6 -113q-61 -2 -90 -16zM354 555l4 8q37 -8 64 -24q25 12 45 14l2 -6q-14 -2 -41 -15v-40h-6l-2 36q-18 10 -66 27zM377 571q27 2 26 13q0 -2 18.5 -7.5t18.5 -7.5q0 2 -16 -10q-4 0 -22.5 6t-24.5 6zM502 920q0 33 10 38q111 94 346 291q0 -12 25 -39 q-240 -174 -381 -290zM608 489q0 80 2 115q295 291 414 303q0 -4 12.5 -15.5t12.5 -27.5q0 -12 -23 -90q-25 -88 -31 -115q-6 -35 -67 -92q-78 -72 -86 -86q-14 -37 -54 -96q-39 -43 -165 -147q0 45 -7.5 145t-7.5 106zM666 801q20 35 108 131q68 74 72 112q72 78 123 95 q0 -25 14 -37q-104 -106 -317 -301zM883 319q32 21 110 -20l-28 -29q-8 8 -27 6q-20 -2 -29 -18q0 4 7.5 18.5t7.5 24.5q0 6 -2 12q-16 -14 -39 6z" />
<glyph unicode="8" d="M0 786q0 338 236.5 578t572.5 240q334 0 570.5 -240t236.5 -578t-236.5 -576.5t-570.5 -238.5q-336 0 -572.5 239t-236.5 576zM61 786q0 -313 219.5 -533t528.5 -220q307 0 526 220t219 533t-219 534.5t-526 221.5q-309 0 -528.5 -221t-219.5 -535zM264 506 q-2 -39 17 -53q68 -43 176 -121q70 -53 82 -66q41 -35 61 -61h37q86 86 257 238.5t249 226.5q6 8 11 36.5t13 34.5q43 33 64 37q-6 -2 49 -2q121 0 121 -127q0 -51 -50.5 -140t-84.5 -97q-12 33 -23.5 61.5t-66.5 28.5q-53 0 -118 -47t-126 -97q-49 0 -76 -63q16 -2 16 -12 q0 -8 -18 -29l-25 -25q18 -6 35 10.5t25 16.5q-2 -8 20 -14q-18 -20 -22 -37q4 -2 8 -2q6 0 39 31.5t72 41.5q8 0 8 13q0 12 -27 73q111 106 172 107q37 0 51 -25q33 -57 39 -63q63 2 133 117q64 106 64 174q0 18 -37 90q-41 80 -70 80q-12 0 -182 -33v41q0 12 13.5 52 t13.5 56q0 31 9 111t9 88q0 37 -172 117q-193 92 -205 102l-546 -415zM301 498v432q80 -78 160 -158q135 -145 135 -209v-303q-297 211 -295 238zM319 952q23 31 201 156q170 121 176 121q10 0 11 -6q0 -2 -2.5 -6.5t-2.5 -6.5q0 -4 11 -4q12 0 55 45q59 61 82 78l45 -31 q-279 -184 -496 -362q35 -59 82 -59q14 0 13 -9q-6 -10 -2 -14q244 246 495 385q12 -4 29 -29q29 -41 33 -45q-4 0 -26 9.5t-36 9.5q-16 0 -174 -140q-250 -221 -260 -231q16 -29 47 -52.5t55 -17.5q102 106 207 215q147 154 246 203q19 -14 29 -14q-78 -100 -248 -258 q-137 -127 -277 -256zM334 586q16 -66 10 -84q29 8 82 -31q27 16 59 33l2 53q-10 12 -29.5 21.5t-19.5 13.5q0 14 5.5 55t5.5 58q-2 -2 -19 10q0 -47 -6 -113q-61 -2 -90 -16zM354 555l4 8q37 -8 64 -24q25 12 45 14l2 -6q-14 -2 -41 -15v-40h-6l-2 36q-18 10 -66 27z M377 571q27 2 26 13q0 -2 18.5 -7.5t18.5 -7.5q0 2 -16 -10q-4 0 -22.5 6t-24.5 6zM502 920q0 33 10 38q111 94 346 291q0 -12 25 -39q-240 -174 -381 -290zM608 489q0 80 2 115q295 291 414 303q0 -4 12.5 -15.5t12.5 -27.5q0 -12 -23 -90q-25 -88 -31 -115q-6 -35 -67 -92 q-78 -72 -86 -86q-14 -37 -54 -96q-39 -43 -165 -147q0 45 -7.5 145t-7.5 106zM666 801q20 35 108 131q68 74 72 112q72 78 123 95q0 -25 14 -37q-104 -106 -317 -301zM883 319q32 21 110 -20l-28 -29q-8 8 -27 6q-20 -2 -29 -18q0 4 7.5 18.5t7.5 24.5q0 6 -2 12 q-16 -14 -39 6z" />
<glyph unicode="9" d="M31 786q0 326 228 556.5t550 230.5t549 -230.5t227 -556.5t-227.5 -555t-548.5 -229q-322 0 -550 229.5t-228 554.5zM258 512q0 -35 29 -59q63 -37 170 -109q100 -80 143 -139h37q86 86 257 238.5t249 226.5q6 8 11 36.5t13 34.5q43 33 64 37q-6 -2 49 -2q121 0 121 -127 q0 -51 -50.5 -140t-84.5 -97q-12 33 -23.5 61.5t-66.5 28.5q-53 0 -118 -47t-126 -97q-49 0 -76 -63q16 -2 16 -12q0 -8 -18 -29l-25 -25q18 -6 35 10.5t25 16.5q-2 -8 20 -14q-18 -20 -22 -37q4 -2 8 -2q6 0 39 31.5t72 41.5q8 0 8 13q0 12 -27 73q111 106 172 107 q37 0 51 -25q33 -57 39 -63q63 2 133 117q64 106 64 174q0 18 -37 90q-41 80 -70 80q-12 0 -182 -33v41q0 12 13.5 52t13.5 56q0 31 9 111t9 88q0 37 -172 117q-193 92 -205 102l-546 -415zM301 498v432q76 -78 154 -156q129 -143 127 -207l14 -307q-297 211 -295 238z M319 952q23 31 201 156q170 121 176 121q10 0 11 -6q0 -2 -2.5 -6.5t-2.5 -6.5q0 -4 11 -4q12 0 55 45q59 61 82 78l45 -31q-279 -184 -496 -362q35 -59 82 -59q14 0 13 -9q-6 -10 -2 -14q244 246 495 385q12 -4 29 -29q29 -41 33 -45q-4 0 -26 9.5t-36 9.5q-16 0 -174 -140 q-250 -221 -260 -231q16 -29 47 -52.5t55 -17.5q102 106 207 215q147 154 246 203q19 -14 29 -14q-78 -100 -248 -258q-137 -127 -277 -256zM334 586q16 -66 10 -84q29 8 82 -31q27 16 59 33l2 53q-10 12 -29.5 21.5t-19.5 13.5q0 14 5.5 55t5.5 58q-2 -2 -19 10 q0 -47 -6 -113q-61 -2 -90 -16zM354 555l4 8q37 -8 64 -24q25 12 45 14l2 -6q-14 -2 -41 -15v-40h-6l-2 36q-18 10 -66 27zM377 571q27 2 26 13q0 -2 18.5 -7.5t18.5 -7.5q0 2 -16 -10q-4 0 -22.5 6t-24.5 6zM502 920q0 33 10 38q111 94 346 291q0 -12 25 -39 q-240 -174 -381 -290zM608 489q0 80 2 115q295 291 414 303q0 -4 12.5 -15.5t12.5 -27.5q0 -12 -23 -90q-25 -88 -31 -115q-6 -35 -67 -92q-78 -72 -86 -86q-14 -37 -54 -96q-39 -43 -165 -147q0 45 -7.5 145t-7.5 106zM666 801q20 35 108 131q68 74 72 112q72 78 123 95 q0 -25 14 -37q-104 -106 -317 -301zM883 319q32 21 110 -20l-28 -29q-8 8 -27 6q-20 -2 -29 -18q0 4 7.5 18.5t7.5 24.5q0 6 -2 12q-16 -14 -39 6z" />
<glyph unicode=":" d="M0 786q0 338 236.5 578t572.5 240q334 0 570.5 -240t236.5 -578t-236.5 -576.5t-570.5 -238.5q-336 0 -572.5 239t-236.5 576zM61 786q0 -313 219.5 -533t528.5 -220q307 0 526 220t219 533t-219 534.5t-526 221.5q-309 0 -528.5 -221t-219.5 -535zM264 506 q-2 -39 17 -53q68 -43 176 -121q70 -53 82 -66q41 -35 61 -61h37q86 86 257 238.5t249 226.5q6 8 11 36.5t13 34.5q43 33 64 37q-6 -2 49 -2q121 0 121 -127q0 -51 -50.5 -140t-84.5 -97q-12 33 -23.5 61.5t-66.5 28.5q-53 0 -118 -47t-126 -97q-49 0 -76 -63q16 -2 16 -12 q0 -8 -18 -29l-25 -25q18 -6 35 10.5t25 16.5q-2 -8 20 -14q-18 -20 -22 -37q4 -2 8 -2q6 0 39 31.5t72 41.5q8 0 8 13q0 12 -27 73q111 106 172 107q37 0 51 -25q33 -57 39 -63q63 2 133 117q64 106 64 174q0 18 -37 90q-41 80 -70 80q-12 0 -182 -33v41q0 12 13.5 52 t13.5 56q0 31 9 111t9 88q0 37 -172 117q-193 92 -205 102l-546 -415zM301 498v432q80 -78 160 -158q135 -145 135 -209v-303q-297 211 -295 238zM319 952q23 31 201 156q170 121 176 121q10 0 11 -6q0 -2 -2.5 -6.5t-2.5 -6.5q0 -4 11 -4q12 0 55 45q59 61 82 78l45 -31 q-279 -184 -496 -362q35 -59 82 -59q14 0 13 -9q-6 -10 -2 -14q244 246 495 385q12 -4 29 -29q29 -41 33 -45q-4 0 -26 9.5t-36 9.5q-16 0 -174 -140q-250 -221 -260 -231q16 -29 47 -52.5t55 -17.5q102 106 207 215q147 154 246 203q19 -14 29 -14q-78 -100 -248 -258 q-137 -127 -277 -256zM334 586q16 -66 10 -84q29 8 82 -31q27 16 59 33l2 53q-10 12 -29.5 21.5t-19.5 13.5q0 14 5.5 55t5.5 58q-2 -2 -19 10q0 -47 -6 -113q-61 -2 -90 -16zM354 555l4 8q37 -8 64 -24q25 12 45 14l2 -6q-14 -2 -41 -15v-40h-6l-2 36q-18 10 -66 27z M377 571q27 2 26 13q0 -2 18.5 -7.5t18.5 -7.5q0 2 -16 -10q-4 0 -22.5 6t-24.5 6zM502 920q0 33 10 38q111 94 346 291q0 -12 25 -39q-240 -174 -381 -290zM608 489q0 80 2 115q295 291 414 303q0 -4 12.5 -15.5t12.5 -27.5q0 -12 -23 -90q-25 -88 -31 -115q-6 -35 -67 -92 q-78 -72 -86 -86q-14 -37 -54 -96q-39 -43 -165 -147q0 45 -7.5 145t-7.5 106zM666 801q20 35 108 131q68 74 72 112q72 78 123 95q0 -25 14 -37q-104 -106 -317 -301zM883 319q32 21 110 -20l-28 -29q-8 8 -27 6q-20 -2 -29 -18q0 4 7.5 18.5t7.5 24.5q0 6 -2 12 q-16 -14 -39 6z" />
<glyph unicode=";" d="M0 786q0 338 236.5 578t572.5 240q334 0 570.5 -240t236.5 -578t-236.5 -576.5t-570.5 -238.5q-336 0 -572.5 239t-236.5 576zM61 786q0 -313 219.5 -533t528.5 -220q307 0 526 220t219 533t-219 534.5t-526 221.5q-309 0 -528.5 -221t-219.5 -535zM264 506 q-2 -39 17 -53q68 -43 176 -121q70 -53 82 -66q41 -35 61 -61h37q86 86 257 238.5t249 226.5q6 8 11 36.5t13 34.5q43 33 64 37q-6 -2 49 -2q121 0 121 -127q0 -51 -50.5 -140t-84.5 -97q-12 33 -23.5 61.5t-66.5 28.5q-53 0 -118 -47t-126 -97q-49 0 -76 -63q16 -2 16 -12 q0 -8 -18 -29l-25 -25q18 -6 35 10.5t25 16.5q-2 -8 20 -14q-18 -20 -22 -37q4 -2 8 -2q6 0 39 31.5t72 41.5q8 0 8 13q0 12 -27 73q111 106 172 107q37 0 51 -25q33 -57 39 -63q63 2 133 117q64 106 64 174q0 18 -37 90q-41 80 -70 80q-12 0 -182 -33v41q0 12 13.5 52 t13.5 56q0 31 9 111t9 88q0 37 -172 117q-193 92 -205 102l-546 -415zM301 498v432q80 -78 160 -158q135 -145 135 -209v-303q-297 211 -295 238zM319 952q23 31 201 156q170 121 176 121q10 0 11 -6q0 -2 -2.5 -6.5t-2.5 -6.5q0 -4 11 -4q12 0 55 45q59 61 82 78l45 -31 q-279 -184 -496 -362q35 -59 82 -59q14 0 13 -9q-6 -10 -2 -14q244 246 495 385q12 -4 29 -29q29 -41 33 -45q-4 0 -26 9.5t-36 9.5q-16 0 -174 -140q-250 -221 -260 -231q16 -29 47 -52.5t55 -17.5q102 106 207 215q147 154 246 203q19 -14 29 -14q-78 -100 -248 -258 q-137 -127 -277 -256zM334 586q16 -66 10 -84q29 8 82 -31q27 16 59 33l2 53q-10 12 -29.5 21.5t-19.5 13.5q0 14 5.5 55t5.5 58q-2 -2 -19 10q0 -47 -6 -113q-61 -2 -90 -16zM354 555l4 8q37 -8 64 -24q25 12 45 14l2 -6q-14 -2 -41 -15v-40h-6l-2 36q-18 10 -66 27z M377 571q27 2 26 13q0 -2 18.5 -7.5t18.5 -7.5q0 2 -16 -10q-4 0 -22.5 6t-24.5 6zM502 920q0 33 10 38q111 94 346 291q0 -12 25 -39q-240 -174 -381 -290zM608 489q0 80 2 115q295 291 414 303q0 -4 12.5 -15.5t12.5 -27.5q0 -12 -23 -90q-25 -88 -31 -115q-6 -35 -67 -92 q-78 -72 -86 -86q-14 -37 -54 -96q-39 -43 -165 -147q0 45 -7.5 145t-7.5 106zM666 801q20 35 108 131q68 74 72 112q72 78 123 95q0 -25 14 -37q-104 -106 -317 -301zM883 319q32 21 110 -20l-28 -29q-8 8 -27 6q-20 -2 -29 -18q0 4 7.5 18.5t7.5 24.5q0 6 -2 12 q-16 -14 -39 6z" />
<glyph unicode="&#x3c;" d="M0 786q0 338 236.5 578t572.5 240q334 0 570.5 -240t236.5 -578t-236.5 -576.5t-570.5 -238.5q-336 0 -572.5 239t-236.5 576zM61 786q0 -313 219.5 -533t528.5 -220q307 0 526 220t219 533t-219 534.5t-526 221.5q-309 0 -528.5 -221t-219.5 -535zM264 506 q-2 -39 17 -53q68 -43 176 -121q70 -53 82 -66q41 -35 61 -61h37q86 86 257 238.5t249 226.5q6 8 11 36.5t13 34.5q43 33 64 37q-6 -2 49 -2q121 0 121 -127q0 -51 -50.5 -140t-84.5 -97q-12 33 -23.5 61.5t-66.5 28.5q-53 0 -118 -47t-126 -97q-49 0 -76 -63q16 -2 16 -12 q0 -8 -18 -29l-25 -25q18 -6 35 10.5t25 16.5q-2 -8 20 -14q-18 -20 -22 -37q4 -2 8 -2q6 0 39 31.5t72 41.5q8 0 8 13q0 12 -27 73q111 106 172 107q37 0 51 -25q33 -57 39 -63q63 2 133 117q64 106 64 174q0 18 -37 90q-41 80 -70 80q-12 0 -182 -33v41q0 12 13.5 52 t13.5 56q0 31 9 111t9 88q0 37 -172 117q-193 92 -205 102l-546 -415zM301 498v432q80 -78 160 -158q135 -145 135 -209v-303q-297 211 -295 238zM319 952q23 31 201 156q170 121 176 121q10 0 11 -6q0 -2 -2.5 -6.5t-2.5 -6.5q0 -4 11 -4q12 0 55 45q59 61 82 78l45 -31 q-279 -184 -496 -362q35 -59 82 -59q14 0 13 -9q-6 -10 -2 -14q244 246 495 385q12 -4 29 -29q29 -41 33 -45q-4 0 -26 9.5t-36 9.5q-16 0 -174 -140q-250 -221 -260 -231q16 -29 47 -52.5t55 -17.5q102 106 207 215q147 154 246 203q19 -14 29 -14q-78 -100 -248 -258 q-137 -127 -277 -256zM334 586q16 -66 10 -84q29 8 82 -31q27 16 59 33l2 53q-10 12 -29.5 21.5t-19.5 13.5q0 14 5.5 55t5.5 58q-2 -2 -19 10q0 -47 -6 -113q-61 -2 -90 -16zM354 555l4 8q37 -8 64 -24q25 12 45 14l2 -6q-14 -2 -41 -15v-40h-6l-2 36q-18 10 -66 27z M377 571q27 2 26 13q0 -2 18.5 -7.5t18.5 -7.5q0 2 -16 -10q-4 0 -22.5 6t-24.5 6zM502 920q0 33 10 38q111 94 346 291q0 -12 25 -39q-240 -174 -381 -290zM608 489q0 80 2 115q295 291 414 303q0 -4 12.5 -15.5t12.5 -27.5q0 -12 -23 -90q-25 -88 -31 -115q-6 -35 -67 -92 q-78 -72 -86 -86q-14 -37 -54 -96q-39 -43 -165 -147q0 45 -7.5 145t-7.5 106zM666 801q20 35 108 131q68 74 72 112q72 78 123 95q0 -25 14 -37q-104 -106 -317 -301zM883 319q32 21 110 -20l-28 -29q-8 8 -27 6q-20 -2 -29 -18q0 4 7.5 18.5t7.5 24.5q0 6 -2 12 q-16 -14 -39 6z" />
<glyph unicode="=" d="M0 786q0 338 236.5 578t572.5 240q334 0 570.5 -240t236.5 -578t-236.5 -576.5t-570.5 -238.5q-336 0 -572.5 239t-236.5 576zM61 786q0 -313 219.5 -533t528.5 -220q307 0 526 220t219 533t-219 534.5t-526 221.5q-309 0 -528.5 -221t-219.5 -535zM264 506 q-2 -39 17 -53q68 -43 176 -121q70 -53 82 -66q41 -35 61 -61h37q86 86 257 238.5t249 226.5q6 8 11 36.5t13 34.5q43 33 64 37q-6 -2 49 -2q121 0 121 -127q0 -51 -50.5 -140t-84.5 -97q-12 33 -23.5 61.5t-66.5 28.5q-53 0 -118 -47t-126 -97q-49 0 -76 -63q16 -2 16 -12 q0 -8 -18 -29l-25 -25q18 -6 35 10.5t25 16.5q-2 -8 20 -14q-18 -20 -22 -37q4 -2 8 -2q6 0 39 31.5t72 41.5q8 0 8 13q0 12 -27 73q111 106 172 107q37 0 51 -25q33 -57 39 -63q63 2 133 117q64 106 64 174q0 18 -37 90q-41 80 -70 80q-12 0 -182 -33v41q0 12 13.5 52 t13.5 56q0 31 9 111t9 88q0 37 -172 117q-193 92 -205 102l-546 -415zM301 498v432q80 -78 160 -158q135 -145 135 -209v-303q-297 211 -295 238zM319 952q23 31 201 156q170 121 176 121q10 0 11 -6q0 -2 -2.5 -6.5t-2.5 -6.5q0 -4 11 -4q12 0 55 45q59 61 82 78l45 -31 q-279 -184 -496 -362q35 -59 82 -59q14 0 13 -9q-6 -10 -2 -14q244 246 495 385q12 -4 29 -29q29 -41 33 -45q-4 0 -26 9.5t-36 9.5q-16 0 -174 -140q-250 -221 -260 -231q16 -29 47 -52.5t55 -17.5q102 106 207 215q147 154 246 203q19 -14 29 -14q-78 -100 -248 -258 q-137 -127 -277 -256zM334 586q16 -66 10 -84q29 8 82 -31q27 16 59 33l2 53q-10 12 -29.5 21.5t-19.5 13.5q0 14 5.5 55t5.5 58q-2 -2 -19 10q0 -47 -6 -113q-61 -2 -90 -16zM354 555l4 8q37 -8 64 -24q25 12 45 14l2 -6q-14 -2 -41 -15v-40h-6l-2 36q-18 10 -66 27z M377 571q27 2 26 13q0 -2 18.5 -7.5t18.5 -7.5q0 2 -16 -10q-4 0 -22.5 6t-24.5 6zM502 920q0 33 10 38q111 94 346 291q0 -12 25 -39q-240 -174 -381 -290zM608 489q0 80 2 115q295 291 414 303q0 -4 12.5 -15.5t12.5 -27.5q0 -12 -23 -90q-25 -88 -31 -115q-6 -35 -67 -92 q-78 -72 -86 -86q-14 -37 -54 -96q-39 -43 -165 -147q0 45 -7.5 145t-7.5 106zM666 801q20 35 108 131q68 74 72 112q72 78 123 95q0 -25 14 -37q-104 -106 -317 -301zM883 319q32 21 110 -20l-28 -29q-8 8 -27 6q-20 -2 -29 -18q0 4 7.5 18.5t7.5 24.5q0 6 -2 12 q-16 -14 -39 6z" />
<glyph unicode="&#x3e;" d="M0 786q0 338 236.5 578t572.5 240q334 0 570.5 -240t236.5 -578t-236.5 -576.5t-570.5 -238.5q-336 0 -572.5 239t-236.5 576zM61 786q0 -313 219.5 -533t528.5 -220q307 0 526 220t219 533t-219 534.5t-526 221.5q-309 0 -528.5 -221t-219.5 -535zM264 506 q-2 -39 17 -53q68 -43 176 -121q70 -53 82 -66q41 -35 61 -61h37q86 86 257 238.5t249 226.5q6 8 11 36.5t13 34.5q43 33 64 37q-6 -2 49 -2q121 0 121 -127q0 -51 -50.5 -140t-84.5 -97q-12 33 -23.5 61.5t-66.5 28.5q-53 0 -118 -47t-126 -97q-49 0 -76 -63q16 -2 16 -12 q0 -8 -18 -29l-25 -25q18 -6 35 10.5t25 16.5q-2 -8 20 -14q-18 -20 -22 -37q4 -2 8 -2q6 0 39 31.5t72 41.5q8 0 8 13q0 12 -27 73q111 106 172 107q37 0 51 -25q33 -57 39 -63q63 2 133 117q64 106 64 174q0 18 -37 90q-41 80 -70 80q-12 0 -182 -33v41q0 12 13.5 52 t13.5 56q0 31 9 111t9 88q0 37 -172 117q-193 92 -205 102l-546 -415zM301 498v432q80 -78 160 -158q135 -145 135 -209v-303q-297 211 -295 238zM319 952q23 31 201 156q170 121 176 121q10 0 11 -6q0 -2 -2.5 -6.5t-2.5 -6.5q0 -4 11 -4q12 0 55 45q59 61 82 78l45 -31 q-279 -184 -496 -362q35 -59 82 -59q14 0 13 -9q-6 -10 -2 -14q244 246 495 385q12 -4 29 -29q29 -41 33 -45q-4 0 -26 9.5t-36 9.5q-16 0 -174 -140q-250 -221 -260 -231q16 -29 47 -52.5t55 -17.5q102 106 207 215q147 154 246 203q19 -14 29 -14q-78 -100 -248 -258 q-137 -127 -277 -256zM334 586q16 -66 10 -84q29 8 82 -31q27 16 59 33l2 53q-10 12 -29.5 21.5t-19.5 13.5q0 14 5.5 55t5.5 58q-2 -2 -19 10q0 -47 -6 -113q-61 -2 -90 -16zM354 555l4 8q37 -8 64 -24q25 12 45 14l2 -6q-14 -2 -41 -15v-40h-6l-2 36q-18 10 -66 27z M377 571q27 2 26 13q0 -2 18.5 -7.5t18.5 -7.5q0 2 -16 -10q-4 0 -22.5 6t-24.5 6zM502 920q0 33 10 38q111 94 346 291q0 -12 25 -39q-240 -174 -381 -290zM608 489q0 80 2 115q295 291 414 303q0 -4 12.5 -15.5t12.5 -27.5q0 -12 -23 -90q-25 -88 -31 -115q-6 -35 -67 -92 q-78 -72 -86 -86q-14 -37 -54 -96q-39 -43 -165 -147q0 45 -7.5 145t-7.5 106zM666 801q20 35 108 131q68 74 72 112q72 78 123 95q0 -25 14 -37q-104 -106 -317 -301zM883 319q32 21 110 -20l-28 -29q-8 8 -27 6q-20 -2 -29 -18q0 4 7.5 18.5t7.5 24.5q0 6 -2 12 q-16 -14 -39 6z" />
<glyph unicode="?" d="M0 786q0 338 236.5 578t572.5 240q334 0 570.5 -240t236.5 -578t-236.5 -576.5t-570.5 -238.5q-336 0 -572.5 239t-236.5 576zM61 786q0 -313 219.5 -533t528.5 -220q307 0 526 220t219 533t-219 534.5t-526 221.5q-309 0 -528.5 -221t-219.5 -535zM264 506 q-2 -39 17 -53q68 -43 176 -121q70 -53 82 -66q41 -35 61 -61h37q86 86 257 238.5t249 226.5q6 8 11 36.5t13 34.5q43 33 64 37q-6 -2 49 -2q121 0 121 -127q0 -51 -50.5 -140t-84.5 -97q-12 33 -23.5 61.5t-66.5 28.5q-53 0 -118 -47t-126 -97q-49 0 -76 -63q16 -2 16 -12 q0 -8 -18 -29l-25 -25q18 -6 35 10.5t25 16.5q-2 -8 20 -14q-18 -20 -22 -37q4 -2 8 -2q6 0 39 31.5t72 41.5q8 0 8 13q0 12 -27 73q111 106 172 107q37 0 51 -25q33 -57 39 -63q63 2 133 117q64 106 64 174q0 18 -37 90q-41 80 -70 80q-12 0 -182 -33v41q0 12 13.5 52 t13.5 56q0 31 9 111t9 88q0 37 -172 117q-193 92 -205 102l-546 -415zM301 498v432q80 -78 160 -158q135 -145 135 -209v-303q-297 211 -295 238zM319 952q23 31 201 156q170 121 176 121q10 0 11 -6q0 -2 -2.5 -6.5t-2.5 -6.5q0 -4 11 -4q12 0 55 45q59 61 82 78l45 -31 q-279 -184 -496 -362q35 -59 82 -59q14 0 13 -9q-6 -10 -2 -14q244 246 495 385q12 -4 29 -29q29 -41 33 -45q-4 0 -26 9.5t-36 9.5q-16 0 -174 -140q-250 -221 -260 -231q16 -29 47 -52.5t55 -17.5q102 106 207 215q147 154 246 203q19 -14 29 -14q-78 -100 -248 -258 q-137 -127 -277 -256zM334 586q16 -66 10 -84q29 8 82 -31q27 16 59 33l2 53q-10 12 -29.5 21.5t-19.5 13.5q0 14 5.5 55t5.5 58q-2 -2 -19 10q0 -47 -6 -113q-61 -2 -90 -16zM354 555l4 8q37 -8 64 -24q25 12 45 14l2 -6q-14 -2 -41 -15v-40h-6l-2 36q-18 10 -66 27z M377 571q27 2 26 13q0 -2 18.5 -7.5t18.5 -7.5q0 2 -16 -10q-4 0 -22.5 6t-24.5 6zM502 920q0 33 10 38q111 94 346 291q0 -12 25 -39q-240 -174 -381 -290zM608 489q0 80 2 115q295 291 414 303q0 -4 12.5 -15.5t12.5 -27.5q0 -12 -23 -90q-25 -88 -31 -115q-6 -35 -67 -92 q-78 -72 -86 -86q-14 -37 -54 -96q-39 -43 -165 -147q0 45 -7.5 145t-7.5 106zM666 801q20 35 108 131q68 74 72 112q72 78 123 95q0 -25 14 -37q-104 -106 -317 -301zM883 319q32 21 110 -20l-28 -29q-8 8 -27 6q-20 -2 -29 -18q0 4 7.5 18.5t7.5 24.5q0 6 -2 12 q-16 -14 -39 6z" />
<glyph unicode="@" horiz-adv-x="1609" d="M39 799q0 311 221.5 532t532.5 221q313 0 534 -221t221 -532q0 -313 -221 -533.5t-534 -220.5q-311 0 -532.5 220t-221.5 534zM141 799q0 -270 191.5 -461t460.5 -191q270 0 461.5 190.5t191.5 461.5q0 270 -191.5 460.5t-461.5 190.5q-268 0 -460 -190.5t-192 -460.5z M182 799l615 612l207 -209l-19 -20q-96 70 -158 69q-53 0 -135 -84l-80 -77l564 -564q27 -27 59 -26q47 0 102 57l21 -22l-301 -302l-21 21q55 57 56 102q0 33 -27 60l-563 563q-88 -88 -111 -119q-51 -66 -43 -117q6 -45 64 -135l-21 -18z" />
<glyph unicode="A" horiz-adv-x="1331" d="M-27 -139l52 33l141 -220l235 240l129 -98l136 221l131 -291l159 -65l197 346l66 -289l108 158l49 -35l-174 -256l-86 225l-121 -231l-227 82l-121 225l-80 -232l-137 166l-258 -291zM-14 1782l288 323l189 -338l186 179l82 43l152 -369l80 160l147 -174l104 555 l175 -367l-58 -20l-84 172l-57 -543l-215 264l-98 -194l-164 434l-41 -43l-232 -232l-180 365l-229 -256zM57 135l351 1178h92l-33 -72l-285 -1038l176 -31l80 -8l-45 -76zM213 215l313 1178l473 34l244 -1241l-393 -10l-115 438l-180 -6l-57 -432zM297 276l158 -32l53 436 l283 8l114 -438l252 6l-217 1096l-360 -21zM535 762l213 481l49 -457zM563 516v78l162 6l113 -436l241 8l19 -68l-348 -4l-107 410zM618 838l127 8l-26 217z" />
<glyph unicode="B" horiz-adv-x="1437" d="M-27 -139l199 -312l201 400l141 -336q113 127 281 367l209 -228l194 314l113 -461l174 256l-51 35l-72 -93q-25 57 -76 250q-41 162 -74 201l-217 -350l-219 159l-227 -323l-180 305l-203 -371l-141 220zM-2 1774l8 75l248 -151l197 434l186 -395l133 274l158 -323 l200 411q43 -209 95 -516l129 612l86 -366v-119l-76 154q-31 -76 -74 -252q-41 -160 -65 -209l-131 471l-174 -281l-146 252l-135 -231l-182 358l-160 -407zM82 254l778 -123l76 66l-737 118l172 1086l-113 10v-4zM217 332l176 1153h690l107 -328l8 -285l-225 -14l213 -61 l162 -285l-351 -303zM307 367l676 -107l283 242l-119 209l-578 166l564 36l-7 207l-88 269h-575zM487 461l80 321l361 -166l-115 -264zM549 983l55 317l307 21l56 -317zM573 508l201 -66l60 140l-218 98zM635 1059l248 12l-31 174l-186 -12z" />
<glyph unicode="C" horiz-adv-x="1247" d="M-8 -139l198 -312l187 373l219 -332l152 342l149 -182l111 256l102 -407l176 254l-51 34l-109 -157l-106 399l-131 -285l-133 201l-170 -303q-10 8 -76 102q-78 111 -135 209l-191 -379l-141 220zM16 1763l115 123l158 -373l188 283l109 -242l112 398l181 -529l311 529 l57 -178l39 65l-117 334l-280 -475l-58 141l-151 322l-98 -447l-95 209l-165 -254l-170 322l-136 -133v-95zM51 633v510l219 209l86 37l-194 -195l6 -516l98 -338l408 -162l76 10l149 31l2 -16l-346 -66l-414 172zM188 692v508l220 211l262 92l383 -305l-222 -233l-135 135 l-104 6l-88 -176l-31 -217l150 -248l188 12l72 268l235 -92l107 -71l-187 -322l-346 -63l-413 170zM260 700l78 -280l362 -150l293 54l135 235l-45 29l-151 61l-64 -239l-284 -21l-187 307l37 256l115 228l180 -11l100 -102l117 123l-291 233l-209 -75l-186 -179v-469z M575 1044l25 50l92 -4l94 -93l-81 -82zM684 508l8 43l45 172l94 -33l-45 -176z" />
<glyph unicode="D" horiz-adv-x="1155" d="M-27 -139l52 33l155 -60l176 219l234 -262l180 266l236 -305l108 158l49 -35l-174 -256l-203 330l-196 -268l-217 268l-168 -182zM-18 1804l18 -82l240 174l231 -374l231 323l99 -321l274 452l78 -221l57 21l-135 381l-252 -453l-121 321l-206 -350l-240 326zM35 1217 l53 16l158 -969l422 4l-35 -43l-449 -12zM92 1374l514 33l346 -223l174 -471l-360 -412l-510 -10zM209 1278l137 -905l389 8l297 338l-143 393l-295 188zM412 1051l30 170l342 -201l7 -369l-359 -49zM504 1044l16 -337l185 24l14 242l-209 108zM522 1042l6 -65l113 -76v-160 l41 7l16 206z" />
<glyph unicode="E" horiz-adv-x="1009" d="M-27 -139l52 33l141 -220l117 254l141 -182l266 543l205 -551l109 158l51 -35l-176 -256l-185 497l-274 -481l-113 162l-135 -234zM-14 1782l288 323l222 -413l209 198l227 262l135 -380l-57 -21l-78 221l-230 -221l-215 -182l-227 428l-229 -256zM59 309l680 -10l-8 115 l-551 4v258l4 702l-114 4zM205 453l8 1118l584 -60v-321l-293 82l6 -193l221 -8l21 -209l-222 -65v-148l396 -18v-189zM268 506l572 -19v66l-375 29l-8 252l225 57l8 113l-244 26v301l291 -65v188l-458 27zM541 1116h84l10 84l-94 29v-113z" />
<glyph unicode="F" horiz-adv-x="1009" d="M-27 -139l52 33l141 -220l231 430l133 -333l166 510l207 -551l107 157l51 -34l-174 -256l-187 497l-163 -504l-150 373l-199 -420zM-14 1782l288 323l240 -499l176 417l107 -237l135 366l135 -380l-57 -21l-78 221l-135 -332l-115 246l-160 -407l-262 518l-229 -256z M35 1255l112 -1022l402 29l-19 64l-315 -29l-115 969zM125 1395l741 121l-55 -277l-389 -74l14 -129l262 58l35 -250l-260 -19l57 -217l170 -241l-458 -33zM203 1331l112 -928l234 19l-55 168l-103 282l271 27v123l-281 -66l-29 273l377 55l45 160zM451 1090l231 45l8 55 l-235 -43zM506 809l24 -72l66 2l-10 70h-80z" />
<glyph unicode="G" horiz-adv-x="1146" d="M-27 -139l52 33l141 -220l192 289l220 -135l149 272l172 -352l248 156l51 -35l-311 -256l-152 367l-135 -265l-242 162l-186 -328zM-14 1782l288 323l222 -401l209 186l92 -209l180 482l237 -385l-57 -21l-182 225l-170 -452l-113 233l-205 -182l-227 416l-229 -256z M41 193l422 -123l172 75l2 35l-55 -33l-465 129v740l213 395l-17 10l-272 -516v-712zM133 289v735l285 537l495 -248l43 -166l-178 -78l-209 182l-180 -241l-55 -283l37 -260l131 -90l141 74l21 88h-181l-22 213l540 141l111 -275l-291 -49v-155l-59 -152l-184 -88z M174 1014l29 -672l385 -121l141 70l51 131v182l275 45l-82 182l-469 -110l16 -141l144 16l55 10l-27 -188l-188 -103l-180 121l-37 301l55 303l221 271l242 -178l102 67l-47 84l-414 207zM371 625l22 -158l182 -21l56 25l14 55h-172l-10 121zM506 1137l164 -156l151 66 l-10 24l-39 -18l-199 174zM836 498l135 22l-21 60l-112 -21z" />
<glyph unicode="H" horiz-adv-x="1099" d="M-27 -139l199 -312l176 275l270 -236l117 301l230 -268l178 229l-51 35l-109 -157l-276 268l-105 -250l-250 162l-186 -234l-141 220zM-14 1782l288 323l232 -446l65 90l250 -166l201 559l133 -381l-57 -20l-94 205l-162 -476l-258 166l-78 -110l-246 471l-229 -256z M25 156l292 -138l5 99l-220 98l199 1063l-51 113l-123 36l76 -196zM133 244l201 1038l-68 215l271 -176l-101 -592l152 29l57 631l166 12l186 -1290h-209l-94 419l-245 -16l-19 -434zM180 291l193 -94l8 372l344 29l115 -412l96 -18l-162 1155l-67 10l-58 -631l-276 -47 l104 639l-115 86l39 -114zM463 449l153 10l95 -422h168l-13 63h-86l-96 416l-221 -12v-55zM522 758l56 10l51 510l-60 -2z" />
<glyph unicode="I" horiz-adv-x="1198" d="M-27 -139l199 -312l199 375l184 -203l137 240l344 -358l213 266l-49 35l-151 -166l-347 366l-159 -278l-187 227l-190 -379l-141 220zM-14 1782l288 323l197 -450l127 315l223 -321l260 514l168 -385l-57 -21l-113 225l-248 -444l-233 268l-123 -311l-209 455l-235 -209z M27 291l36 -131l11 -142l422 132l385 47l-33 73l-242 -39l-465 -135l-18 195h-96zM102 434h330l72 338v272l-115 23l-190 12l63 320l893 67l-12 -448l-361 39l-43 -199l-75 -313l219 51l131 -293l-412 -51l-444 -139l-11 166zM121 975l168 -8l131 -29v-291l-41 -192h43 l67 325l-4 248l-100 23l-203 2l39 207l-45 -3zM186 285l25 -103l387 133l328 27l-66 180l-254 -47l152 639l338 -37l16 346l-788 -73l-48 -217l119 -25l164 -12l-14 -328l-62 -369l-290 -18zM780 948l240 -28l12 96h-35l-168 18z" />
<glyph unicode="J" horiz-adv-x="1247" d="M-27 -139l199 -312l162 295l141 -151l211 -105l166 340l182 -334l260 269l-51 35l-192 -170l-191 342l-182 -392l-203 109l-170 180l-123 -293l-157 220zM-14 1782l288 323l191 -436l174 80l221 -135l227 530l226 -381l-58 -20l-168 221l-217 -434l-219 106l-233 -69 l-150 385l-237 -211zM47 365l197 -320l424 -20l24 90l-375 26l-157 275zM104 526l351 170l69 -321l27 -2l41 202l80 605l-381 -17l-98 328l444 -21l500 41l61 -337h-139l-160 6v-682l-94 -361l-471 21zM131 1305l76 -254l395 20l-78 -606l21 -57l102 743l-377 -8l-43 157z M207 498l164 -289l383 -10l73 309l4 428l-8 295h297l-43 203l-426 -15l-358 17l51 -213l410 32l-92 -692l-62 -244h-111l-59 281zM913 1159l5 -96l126 -2l-18 104z" />
<glyph unicode="K" horiz-adv-x="1009" d="M-27 -139l52 33l120 -205l91 153l157 279l133 -336l166 324l205 -365l109 158l51 -35l-176 -256l-189 379l-160 -385l-149 375l-137 -242l-84 -168zM-14 1782l288 323l146 -405l110 196l172 -247l234 512l133 -381l-57 -21l-78 221l-223 -407l-197 170l-113 -170 l-153 385l-217 -217zM47 131l141 45l9 45l-56 -14l154 1100l-78 -13zM160 225l180 1235l319 60l-75 -361l272 361l98 -308l-288 -344l159 -110l117 -455l-324 23l-28 354l-109 39l-119 -426zM236 315l77 27l125 457l211 -74l27 -340l184 -14l-90 350l-197 135l312 369 l-51 161l-367 -483l113 539l-187 -35zM469 561l29 -346l254 -18l-29 98l-119 4l-35 363q-27 8 -71 24z" />
<glyph unicode="L" horiz-adv-x="1062" d="M-43 1796l45 -41l229 254l166 -278l168 167l187 -151l108 295l205 -264l57 20l-270 346l-135 -305l-176 170l-127 -178l-166 289zM-27 -139l199 -312l90 328l187 -246l151 152q78 -102 127 -209l379 311l-51 35l-279 -262l-168 244l-151 -195l-228 287l-63 -320l-141 220 zM27 43l723 84l2 100l-592 -63l18 334l74 907l-129 2zM178 186l105 1459l391 -15l53 -262l-235 -670l43 -92l448 25v-350zM262 285l645 73v183l-418 -25l-83 176l239 682l-35 172l-256 10z" />
<glyph unicode="M" horiz-adv-x="1064" d="M-39 1786l358 362l-18 -307l215 232l180 -336l68 104l197 316l167 -375l-57 -21l-110 215l-256 -366l-113 102l-94 223l-265 -198l17 250l-244 -242zM-27 -139l52 33l157 -205l260 426l136 -336l151 254l219 -295l109 158l49 -35l-174 -256l-193 299l-157 -305l-148 374 l-252 -403zM35 1233l82 27l18 -996l135 29l11 -92l-218 -47zM135 1434l256 71l180 -448l86 420l338 45l49 -1137l-268 -86l-8 635l-80 -176l-180 -72l-109 238l45 -570l-278 -61zM199 1389l26 -1020l154 34l-68 859l228 -496l102 41l184 405l11 -829l145 45l-45 1024 l-227 -31l-119 -575l-236 586zM422 829l78 -155l78 31l-46 -101l-90 -35zM532 1169l19 101l57 10l-41 -190zM668 725l32 23l60 139l8 -604l109 39l4 -95l-207 -65z" />
<glyph unicode="N" horiz-adv-x="960" d="M-39 1786l45 -41l244 258l86 -342l145 180l103 -438l268 590l111 -215l57 20l-166 375l-262 -598l-84 420l-156 -207l-86 317zM-27 -139l199 -312l156 347l147 -281l170 375l178 -369l176 256l-51 35l-108 -158l-205 365l-166 -324l-141 230l-172 -336l-131 205zM45 1214 l59 70l33 -1104l21 -88l-62 -51zM117 1364l252 242l215 -727l104 616l264 -88l-196 -1092l-228 -53l-135 440l17 -383l-240 -206zM178 1339l49 -1097l121 104l-37 832l260 -844l131 33l181 999l-146 49l-137 -807l-262 883zM416 563l84 -330l135 29l-8 -59l-181 -41z M563 1014l47 303l33 -17l-65 -342z" />
<glyph unicode="O" horiz-adv-x="1132" d="M-39 1786l291 323l221 -456l207 239l76 -188l94 16l188 437l166 -375l-57 -21l-111 215l-151 -315l-189 -35l-26 139l-197 -209l-237 443l-230 -254zM-27 -139l52 33l141 -220l190 326l222 -172l170 111l94 67l182 -268l109 158l51 -35l-176 -256l-185 291l-213 -172 l-241 192l-197 -367zM37 281l272 -215l375 -19l41 148l-256 8l-311 227l98 840l-106 16zM184 457l119 1052l635 -71l109 -613l-158 -622l-412 20zM250 483l250 -198l342 -19l141 561l-98 553l-529 60zM379 586l123 616l256 25l43 -191v-368l-162 -250zM449 616l172 -112 l118 182v344l-30 129l-156 -14zM561 1100l115 22l35 -104l-4 -326l-97 -147l-20 301z" />
<glyph unicode="P" horiz-adv-x="995" d="M-39 1786l291 323l127 -362l213 229l113 -334l182 517l166 -375l-58 -21l-110 215l-180 -497l-164 307l-222 -162l-83 373l-230 -254zM-27 -139l199 -312l199 381l137 -329l164 505l184 -499l176 256l-51 35l-109 -158l-204 553l-166 -512l-131 268l-205 -375l-141 220z M72 1135l32 -637l-24 -420l188 43l6 74l-143 -31l8 229v762zM141 184l27 461l-16 664l329 104l318 -94l94 -408l-188 -243l-287 -50l-27 -376zM207 264l127 29l24 377l314 53l153 203l-77 346l-265 78l-270 -86l16 -621zM340 1171l231 84l107 -157l-31 -219l-297 -97z M401 1128l9 -262l182 58l20 157l-65 101zM418 1051l8 -166l111 35l14 24l-86 129zM428 516l166 35l65 86l-227 -39z" />
<glyph unicode="Q" horiz-adv-x="1040" d="M-39 1786l45 -41l230 254l233 -289l201 55l106 -239l152 418l125 -203l57 20l-190 371l-146 -446l-94 206l-211 -98l-217 315zM-27 -139l199 -312l201 400l227 -234l131 219l170 -319l186 225l-49 35l-129 -147l-178 374l-153 -274l-222 225l-190 -379l-141 220zM-10 694 l94 -280l186 -199l133 -37l207 19l19 47l-254 37l-189 206l-120 301l149 490h-84l-29 -207zM109 817l114 381l29 221l323 176l234 -192l176 -166l41 -229v-379l-250 -338l-225 -23l-145 43l-199 207zM172 817l90 -282l176 -170l117 -33l188 16l222 301v352l-37 205l-160 152 l-201 164l-258 -142l-26 -194zM268 807l135 166l93 268l182 -61l94 -207v-293l-233 -199l-131 166zM348 809l107 -123l92 -117l164 140v252l-78 169l-98 33l-76 -221zM422 854l18 -66l123 -149l27 207l-84 186l-19 -102z" />
<glyph unicode="R" horiz-adv-x="944" d="M-39 1786l291 323l151 -329l86 112l138 -250l207 480l165 -375l-57 -21l-111 216l-204 -426l-154 239l-94 -94l-137 307l-236 -223zM37 -141l51 32l137 -219l8 164l86 154l130 -244l178 272l192 -315l109 158l51 -35l-176 -254l-176 367l-172 -373l-146 303l-51 -334z M84 911l55 -856h217l-4 70l-151 -4l-58 846v319l-59 -47v-328zM154 1024v346l135 100l268 -30l268 -269l31 -309l-190 -149l-205 -8l293 -127l63 -402l-186 -14l-8 317l-146 51l-8 -41l20 -348h-276zM215 1026l55 -823h156v301l37 74l201 -84l6 -285l116 6l-71 334l-279 117 l-39 98l246 10l148 115l-25 254l-238 239l-221 25l-92 -68v-313zM358 1260l138 14l143 -115l80 -112l-123 -205l-205 24zM424 1204l25 -282l114 -15l82 135l-51 74l-117 94zM457 1184l127 -82l22 -55l-39 -113l-35 84l-67 35zM492 424l10 70l92 -33l24 -322h136l4 -41 l-178 -10l-33 293zM541 692l67 -35h33l18 41z" />
<glyph unicode="S" horiz-adv-x="1050" d="M-39 1786l45 -41l230 254l157 -357l277 123l118 -196l130 373l143 -158l57 20l-213 369l-137 -455l-88 174l-258 -145l-170 362zM-27 -139l199 -312l174 338l207 -217l178 312l131 -355l246 250l-51 35l-164 -158l-162 348l-207 -280l-186 141l-172 -289l-141 220z M14 827l146 -307l-10 125h141l-43 68l-131 284l102 246h-43zM49 420l35 -180l262 -179l410 154l2 76l-271 -109l-88 60l-200 145l-11 33h-139zM137 1004l174 446l471 18l213 -348l-309 -151l-24 157l-162 52l-49 -252l90 -52l168 44l260 -125l-29 -422l-442 -166l-287 194 l-43 228h227l92 -84l183 14l59 102l-35 39l-164 -30h-235zM203 1006l131 -277h190l193 37l86 -98l-94 -170l-244 -19l-94 86h-129l24 -129l240 -164l375 142l22 342l-201 96l-170 -43l-149 86l70 362l264 -86l14 -133l178 105l-159 264l-398 -16zM508 1143l27 -172l71 -70 l193 53l-4 54l-131 -54l-23 152l-76 27z" />
<glyph unicode="T" horiz-adv-x="1181" d="M-39 1786l291 323l301 -456l254 178l248 348l168 -375l-58 -20l-110 215l-211 -270l-320 -179l-291 432l-227 -237zM-27 -139l199 -312l240 320l264 -248l168 379l182 -373l203 250l-51 35l-136 -152l-188 353l-182 -312l-279 181l-225 -291l-143 203zM55 1231l11 -320 l356 66l-39 -846h272v84l-196 -8l47 835l-367 -47l11 244zM164 1409l964 51l-10 -405l-291 28v-833h-333l36 840l-354 -66zM227 1352l9 -254l358 65l-37 -852h209v840l293 -29l8 273zM872 911l150 113l-150 8v-121z" />
<glyph unicode="U" horiz-adv-x="1038" d="M-39 1786l291 323l162 -380l161 223l146 -342l217 540l166 -374l-57 -21l-111 215l-223 -473l-162 291l-156 -170l-162 377l-227 -250zM-27 -139l199 -312l199 347l196 -258l154 352l186 -391l176 256l-51 34l-108 -157l-211 377l-160 -336l-193 217l-196 -318l-139 222z M59 217l263 -76l358 39l8 90l-276 -32l-269 88l99 1001l-80 82l-8 -178zM168 344l108 1284l265 -254l-19 -354l-92 -442l45 -99l131 86l60 199l-68 635l328 -47v-668l-80 -383l-385 -41zM233 389l232 -65l330 34l69 332v608l-196 29l61 -569l-72 -232l-206 -139l-86 182 l96 459l18 322l-149 141l-6 -113zM547 1196l28 -606l58 178l-33 418z" />
<glyph unicode="V" horiz-adv-x="1323" d="M-39 1786l291 323l170 -344l178 330l113 -414l131 273l151 -367l234 570l166 -375l-58 -21l-110 215l-213 -465l-170 244l-168 -225l-127 276l-146 -211l-170 349l-227 -199zM-27 -139l199 -312l201 400l190 -217l137 239l150 -372l164 503l184 -497l176 256l-51 35 l-109 -158l-204 551l-166 -510l-133 334l-160 -279l-180 201l-205 -361l-141 220zM66 1380l36 -301l338 -948l160 -18l76 84l-105 28l-47 123l-309 817l-29 131zM197 1597l399 -227l-21 -256l140 -397l295 721l239 -168l-461 -1030l-200 24l-346 969zM272 1485l31 -238 l330 -925l119 -15l422 942l-136 94l-327 -798l-197 561l16 231z" />
<glyph unicode="W" horiz-adv-x="1304" d="M-39 1786l45 -41l201 250l209 -463l116 223l152 -266l166 403l111 -360l233 481l111 -215l57 21l-166 374l-217 -516l-113 412l-178 -453l-156 283l-118 -229l-197 436zM-27 -139l52 33l141 -220l190 379l183 -252l131 256l164 -243l170 321l200 -362l109 157l51 -34 l-176 -256l-184 393l-164 -400l-170 322l-119 -256l-182 268l-197 -418zM66 1231l18 -160l152 -846l196 -75l37 157l-178 68l-131 821zM135 1458l338 -129l23 -344l28 180l254 -127l35 -102l14 469h277l86 -236l-137 -860h-244l-160 350l-90 -368l-246 92l-153 864z M209 1364l12 -109l148 -827l147 -55l117 475l215 -477h151l127 792l-65 180h-174l-23 -753l-135 405l-158 78l-90 -244l-67 457zM606 418l117 -258h197l18 137h-139l-146 301zM739 1214l62 -208l6 233z" />
<glyph unicode="X" horiz-adv-x="1148" d="M-39 1786l291 323l123 -147l151 -367l80 158l201 -111l248 506l168 -374l-60 -21l-110 215l-203 -412l-232 84l-98 -194l-145 352l-133 197l-236 -250zM-27 -139l52 33l141 -220l203 162l159 279l134 -336l161 305l209 -346l117 149l43 -26l-176 -256l-193 342l-155 -348 l-150 374l-137 -241l-209 -213zM18 1174l299 -422l-243 -611l196 -94l39 96l-164 70l250 631l-76 98l-229 328zM121 1276l155 213l287 -477l129 465l264 -86l-161 -557l321 -390l-178 -237l-303 399l-207 -497l-252 120l248 621zM197 1278l297 -420l-240 -598l141 -67 l201 509l360 -419l91 170l-322 366l156 533l-148 47l-151 -551l-303 557zM522 1149l37 -80l66 240l-54 24zM602 434l205 -293l115 54l-273 358z" />
<glyph unicode="Y" horiz-adv-x="1163" d="M-39 1786l45 -41l230 254l129 -244l206 133l84 -301l189 207l151 -199l58 387l110 -188l58 21l-150 374l-104 -424l-105 142l-186 -160l-76 248l-207 -146l-114 269zM-27 -139l199 -312l127 244l225 76l174 -283l185 283l166 -277l174 254l-52 35l-106 -157 q-51 104 -174 266l-199 -223l-168 204l-291 -141l-65 -131l-143 195zM90 1014l57 196l291 -309l-28 -825l309 18l39 -76h-490l37 789zM98 1321l189 293l342 -492l157 342l301 -84l-374 -561l78 -678l-328 -35l10 822zM176 1327l359 -377l-11 -776l199 23l-74 637l340 509 l-168 48l-180 -392l-352 504zM750 825l28 -112l197 452z" />
<glyph unicode="Z" horiz-adv-x="1239" d="M-39 1786l291 323l237 -501l191 284l94 -206l356 456l166 -375l-57 -20l-111 215l-340 -432l-118 235l-189 -280l-245 514l-230 -254zM-27 -139l199 -312l201 400l227 -234l113 275l168 -373l75 354l172 -377l177 256l-52 35l-108 -159l-197 424l-94 -310l-131 301 l-145 -313l-222 225l-190 -379l-141 220zM66 197v395l112 18v-282l807 86l19 -105zM182 1380l860 60l150 -324l-504 -346l418 -8l35 -291l-948 -102l20 381l537 333l-463 -16zM186 1249l95 -217h301l-330 -207zM256 438l817 86l-22 178l-557 11l622 424l-112 239l-738 -51 l64 -195l647 23l-705 -438zM797 799l264 178l-10 -131z" />
<glyph unicode="[" horiz-adv-x="1452" d="M66 -25l639 654l-568 102l756 223l-582 410l807 315l-307 551l674 -426l-37 -61l-412 244l185 -349l-684 -305l561 -389l-592 -192l407 -82l-612 -551l1051 295l-592 -807l684 276l33 -63l-981 -426l643 876z" />
<glyph unicode="]" horiz-adv-x="1986" d="M-35 -176l39 59l438 -286l-59 466l520 -47l-653 449l1102 153l-1082 175l439 438l-674 -103l807 961l-848 -360v88l1124 464l-837 -1030l632 92l-448 -520l1337 -205l-1296 -229l633 -434l-672 18l65 -522z" />
<glyph unicode="^" horiz-adv-x="1609" d="M27 831q0 313 221 533.5t532 220.5q313 0 533.5 -220t220.5 -534q0 -311 -220.5 -532t-533.5 -221q-311 0 -532 221t-221 532zM129 831q0 -270 190.5 -460.5t460.5 -190.5t461 190.5t191 460.5t-190.5 461t-461.5 191q-270 0 -460.5 -190.5t-190.5 -461.5zM215 1096 l303 301l21 -21q-57 -57 -58 -102q0 -33 29 -60l561 -563q88 88 111 119q51 66 45 117q-8 45 -64 135l21 18l207 -209l-613 -612l-209 209l21 21q94 -70 155 -70q55 0 138 84l78 78l-564 563q-27 27 -57 26q-47 0 -104 -57z" />
<glyph unicode="a" horiz-adv-x="1363" d="M-27 -139l52 33l141 -220l235 240l129 -98l136 221l131 -291l159 -65l197 346l66 -289l108 158l49 -35l-174 -256l-86 225l-121 -231l-227 82l-121 225l-80 -232l-137 166l-258 -291zM-14 1782l288 323l189 -338l186 179l82 43l152 -369l80 160l147 -174l104 555 l175 -367l-58 -20l-84 172l-57 -543l-215 264l-98 -194l-164 434l-41 -43l-232 -232l-180 365l-229 -256zM57 135l351 1178h92l-33 -72l-285 -1038l176 -31l80 -8l-45 -76zM213 215l313 1178l473 34l244 -1241l-393 -10l-115 438l-180 -6l-57 -432zM297 276l158 -32l53 436 l283 8l114 -438l252 6l-217 1096l-360 -21zM535 762l213 481l49 -457zM563 516v78l162 6l113 -436l241 8l19 -68l-348 -4l-107 410zM618 838l127 8l-26 217z" />
<glyph unicode="b" horiz-adv-x="1437" d="M-27 -139l199 -312l201 400l141 -336q113 127 281 367l209 -228l194 314l113 -461l174 256l-51 35l-72 -93q-25 57 -76 250q-41 162 -74 201l-217 -350l-219 159l-227 -323l-180 305l-203 -371l-141 220zM-2 1774l8 75l248 -151l197 434l186 -395l133 274l158 -323 l200 411q43 -209 95 -516l129 612l86 -366v-119l-76 154q-31 -76 -74 -252q-41 -160 -65 -209l-131 471l-174 -281l-146 252l-135 -231l-182 358l-160 -407zM82 254l778 -123l76 66l-737 118l172 1086l-113 10v-4zM217 332l176 1153h690l107 -328l8 -285l-225 -14l213 -61 l162 -285l-351 -303zM307 367l676 -107l283 242l-119 209l-578 166l564 36l-7 207l-88 269h-575zM487 461l80 321l361 -166l-115 -264zM549 983l55 317l307 21l56 -317zM573 508l201 -66l60 140l-218 98zM635 1059l248 12l-31 174l-186 -12z" />
<glyph unicode="c" horiz-adv-x="1247" d="M-8 -139l198 -312l187 373l219 -332l152 342l149 -182l111 256l102 -407l176 254l-51 34l-109 -157l-106 399l-131 -285l-133 201l-170 -303q-10 8 -76 102q-78 111 -135 209l-191 -379l-141 220zM16 1763l115 123l158 -373l188 283l109 -242l112 398l181 -529l311 529 l57 -178l39 65l-117 334l-280 -475l-58 141l-151 322l-98 -447l-95 209l-165 -254l-170 322l-136 -133v-95zM51 633v510l219 209l86 37l-194 -195l6 -516l98 -338l408 -162l76 10l149 31l2 -16l-346 -66l-414 172zM188 692v508l220 211l262 92l383 -305l-222 -233l-135 135 l-104 6l-88 -176l-31 -217l150 -248l188 12l72 268l235 -92l107 -71l-187 -322l-346 -63l-413 170zM260 700l78 -280l362 -150l293 54l135 235l-45 29l-151 61l-64 -239l-284 -21l-187 307l37 256l115 228l180 -11l100 -102l117 123l-291 233l-209 -75l-186 -179v-469z M575 1044l25 50l92 -4l94 -93l-81 -82zM684 508l8 43l45 172l94 -33l-45 -176z" />
<glyph unicode="d" horiz-adv-x="1155" d="M-27 -139l52 33l155 -60l176 219l234 -262l180 266l236 -305l108 158l49 -35l-174 -256l-203 330l-196 -268l-217 268l-168 -182zM-18 1804l18 -82l240 174l231 -374l231 323l99 -321l274 452l78 -221l57 21l-135 381l-252 -453l-121 321l-206 -350l-240 326zM35 1217 l53 16l158 -969l422 4l-35 -43l-449 -12zM92 1374l514 33l346 -223l174 -471l-360 -412l-510 -10zM209 1278l137 -905l389 8l297 338l-143 393l-295 188zM412 1051l30 170l342 -201l7 -369l-359 -49zM504 1044l16 -337l185 24l14 242l-209 108zM522 1042l6 -65l113 -76v-160 l41 7l16 206z" />
<glyph unicode="e" horiz-adv-x="1009" d="M-27 -139l52 33l141 -220l117 254l141 -182l266 543l205 -551l109 158l51 -35l-176 -256l-185 497l-274 -481l-113 162l-135 -234zM-14 1782l288 323l222 -413l209 198l227 262l135 -380l-57 -21l-78 221l-230 -221l-215 -182l-227 428l-229 -256zM59 309l680 -10l-8 115 l-551 4v258l4 702l-114 4zM205 453l8 1118l584 -60v-321l-293 82l6 -193l221 -8l21 -209l-222 -65v-148l396 -18v-189zM268 506l572 -19v66l-375 29l-8 252l225 57l8 113l-244 26v301l291 -65v188l-458 27zM541 1116h84l10 84l-94 29v-113z" />
<glyph unicode="f" horiz-adv-x="1009" d="M-27 -139l52 33l141 -220l231 430l133 -333l166 510l207 -551l107 157l51 -34l-174 -256l-187 497l-163 -504l-150 373l-199 -420zM-14 1782l288 323l240 -499l176 417l107 -237l135 366l135 -380l-57 -21l-78 221l-135 -332l-115 246l-160 -407l-262 518l-229 -256z M35 1255l112 -1022l402 29l-19 64l-315 -29l-115 969zM125 1395l741 121l-55 -277l-389 -74l14 -129l262 58l35 -250l-260 -19l57 -217l170 -241l-458 -33zM203 1331l112 -928l234 19l-55 168l-103 282l271 27v123l-281 -66l-29 273l377 55l45 160zM451 1090l231 45l8 55 l-235 -43zM506 809l24 -72l66 2l-10 70h-80z" />
<glyph unicode="g" horiz-adv-x="1146" d="M-27 -139l52 33l141 -220l192 289l220 -135l149 272l172 -352l248 156l51 -35l-311 -256l-152 367l-135 -265l-242 162l-186 -328zM-14 1782l288 323l222 -401l209 186l92 -209l180 482l237 -385l-57 -21l-182 225l-170 -452l-113 233l-205 -182l-227 416l-229 -256z M41 193l422 -123l172 75l2 35l-55 -33l-465 129v740l213 395l-17 10l-272 -516v-712zM133 289v735l285 537l495 -248l43 -166l-178 -78l-209 182l-180 -241l-55 -283l37 -260l131 -90l141 74l21 88h-181l-22 213l540 141l111 -275l-291 -49v-155l-59 -152l-184 -88z M174 1014l29 -672l385 -121l141 70l51 131v182l275 45l-82 182l-469 -110l16 -141l144 16l55 10l-27 -188l-188 -103l-180 121l-37 301l55 303l221 271l242 -178l102 67l-47 84l-414 207zM371 625l22 -158l182 -21l56 25l14 55h-172l-10 121zM506 1137l164 -156l151 66 l-10 24l-39 -18l-199 174zM836 498l135 22l-21 60l-112 -21z" />
<glyph unicode="h" horiz-adv-x="1099" d="M-27 -139l199 -312l176 275l270 -236l117 301l230 -268l178 229l-51 35l-109 -157l-276 268l-105 -250l-250 162l-186 -234l-141 220zM-14 1782l288 323l232 -446l65 90l250 -166l201 559l133 -381l-57 -20l-94 205l-162 -476l-258 166l-78 -110l-246 471l-229 -256z M25 156l292 -138l5 99l-220 98l199 1063l-51 113l-123 36l76 -196zM133 244l201 1038l-68 215l271 -176l-101 -592l152 29l57 631l166 12l186 -1290h-209l-94 419l-245 -16l-19 -434zM180 291l193 -94l8 372l344 29l115 -412l96 -18l-162 1155l-67 10l-58 -631l-276 -47 l104 639l-115 86l39 -114zM463 449l153 10l95 -422h168l-13 63h-86l-96 416l-221 -12v-55zM522 758l56 10l51 510l-60 -2z" />
<glyph unicode="i" horiz-adv-x="1198" d="M-27 -139l199 -312l199 375l184 -203l137 240l344 -358l213 266l-49 35l-151 -166l-347 366l-159 -278l-187 227l-190 -379l-141 220zM-14 1782l288 323l197 -450l127 315l223 -321l260 514l168 -385l-57 -21l-113 225l-248 -444l-233 268l-123 -311l-209 455l-235 -209z M27 291l36 -131l11 -142l422 132l385 47l-33 73l-242 -39l-465 -135l-18 195h-96zM102 434h330l72 338v272l-115 23l-190 12l63 320l893 67l-12 -448l-361 39l-43 -199l-75 -313l219 51l131 -293l-412 -51l-444 -139l-11 166zM121 975l168 -8l131 -29v-291l-41 -192h43 l67 325l-4 248l-100 23l-203 2l39 207l-45 -3zM186 285l25 -103l387 133l328 27l-66 180l-254 -47l152 639l338 -37l16 346l-788 -73l-48 -217l119 -25l164 -12l-14 -328l-62 -369l-290 -18zM780 948l240 -28l12 96h-35l-168 18z" />
<glyph unicode="j" horiz-adv-x="1247" d="M-27 -139l199 -312l162 295l141 -151l211 -105l166 340l182 -334l260 269l-51 35l-192 -170l-191 342l-182 -392l-203 109l-170 180l-123 -293l-157 220zM-14 1782l288 323l191 -436l174 80l221 -135l227 530l226 -381l-58 -20l-168 221l-217 -434l-219 106l-233 -69 l-150 385l-237 -211zM47 365l197 -320l424 -20l24 90l-375 26l-157 275zM104 526l351 170l69 -321l27 -2l41 202l80 605l-381 -17l-98 328l444 -21l500 41l61 -337h-139l-160 6v-682l-94 -361l-471 21zM131 1305l76 -254l395 20l-78 -606l21 -57l102 743l-377 -8l-43 157z M207 498l164 -289l383 -10l73 309l4 428l-8 295h297l-43 203l-426 -15l-358 17l51 -213l410 32l-92 -692l-62 -244h-111l-59 281zM913 1159l5 -96l126 -2l-18 104z" />
<glyph unicode="k" horiz-adv-x="1009" d="M-27 -139l52 33l120 -205l91 153l157 279l133 -336l166 324l205 -365l109 158l51 -35l-176 -256l-189 379l-160 -385l-149 375l-137 -242l-84 -168zM-14 1782l288 323l146 -405l110 196l172 -247l234 512l133 -381l-57 -21l-78 221l-223 -407l-197 170l-113 -170 l-153 385l-217 -217zM47 131l141 45l9 45l-56 -14l154 1100l-78 -13zM160 225l180 1235l319 60l-75 -361l272 361l98 -308l-288 -344l159 -110l117 -455l-324 23l-28 354l-109 39l-119 -426zM236 315l77 27l125 457l211 -74l27 -340l184 -14l-90 350l-197 135l312 369 l-51 161l-367 -483l113 539l-187 -35zM469 561l29 -346l254 -18l-29 98l-119 4l-35 363q-27 8 -71 24z" />
<glyph unicode="l" horiz-adv-x="1044" d="M-43 1796l45 -41l229 254l166 -278l168 167l187 -151l108 295l205 -264l57 20l-270 346l-135 -305l-176 170l-127 -178l-166 289zM-27 -139l199 -312l90 328l187 -246l151 152q78 -102 127 -209l379 311l-51 35l-279 -262l-168 244l-151 -195l-228 287l-63 -320l-141 220 zM27 43l723 84l2 100l-592 -63l18 334l74 907l-129 2zM178 186l105 1459l391 -15l53 -262l-235 -670l43 -92l448 25v-350zM262 285l645 73v183l-418 -25l-83 176l239 682l-35 172l-256 10z" />
<glyph unicode="m" horiz-adv-x="1079" d="M-39 1786l358 362l-18 -307l215 232l180 -336l68 104l197 316l167 -375l-57 -21l-110 215l-256 -366l-113 102l-94 223l-265 -198l17 250l-244 -242zM-27 -139l52 33l157 -205l260 426l136 -336l151 254l219 -295l109 158l49 -35l-174 -256l-193 299l-157 -305l-148 374 l-252 -403zM35 1233l82 27l18 -996l135 29l11 -92l-218 -47zM135 1434l256 71l180 -448l86 420l338 45l49 -1137l-268 -86l-8 635l-80 -176l-180 -72l-109 238l45 -570l-278 -61zM199 1389l26 -1020l154 34l-68 859l228 -496l102 41l184 405l11 -829l145 45l-45 1024 l-227 -31l-119 -575l-236 586zM422 829l78 -155l78 31l-46 -101l-90 -35zM532 1169l19 101l57 10l-41 -190zM668 725l32 23l60 139l8 -604l109 39l4 -95l-207 -65z" />
<glyph unicode="n" horiz-adv-x="985" d="M-39 1786l45 -41l244 258l86 -342l145 180l103 -438l268 590l111 -215l57 20l-166 375l-262 -598l-84 420l-156 -207l-86 317zM-27 -139l199 -312l156 347l147 -281l170 375l178 -369l176 256l-51 35l-108 -158l-205 365l-166 -324l-141 230l-172 -336l-131 205zM45 1214 l59 70l33 -1104l21 -88l-62 -51zM117 1364l252 242l215 -727l104 616l264 -88l-196 -1092l-228 -53l-135 440l17 -383l-240 -206zM178 1339l49 -1097l121 104l-37 832l260 -844l131 33l181 999l-146 49l-137 -807l-262 883zM416 563l84 -330l135 29l-8 -59l-181 -41z M563 1014l47 303l33 -17l-65 -342z" />
<glyph unicode="o" horiz-adv-x="1163" d="M-39 1786l291 323l221 -456l207 239l76 -188l94 16l188 437l166 -375l-57 -21l-111 215l-151 -315l-189 -35l-26 139l-197 -209l-237 443l-230 -254zM-27 -139l52 33l141 -220l190 326l222 -172l170 111l94 67l182 -268l109 158l51 -35l-176 -256l-185 291l-213 -172 l-241 192l-197 -367zM37 281l272 -215l375 -19l41 148l-256 8l-311 227l98 840l-106 16zM184 457l119 1052l635 -71l109 -613l-158 -622l-412 20zM250 483l250 -198l342 -19l141 561l-98 553l-529 60zM379 586l123 616l256 25l43 -191v-368l-162 -250zM449 616l172 -112 l118 182v344l-30 129l-156 -14zM561 1100l115 22l35 -104l-4 -326l-97 -147l-20 301z" />
<glyph unicode="p" horiz-adv-x="987" d="M-39 1786l291 323l127 -362l213 229l113 -334l182 517l166 -375l-58 -21l-110 215l-180 -497l-164 307l-222 -162l-83 373l-230 -254zM-27 -139l199 -312l199 381l137 -329l164 505l184 -499l176 256l-51 35l-109 -158l-204 553l-166 -512l-131 268l-205 -375l-141 220z M72 1135l32 -637l-24 -420l188 43l6 74l-143 -31l8 229v762zM141 184l27 461l-16 664l329 104l318 -94l94 -408l-188 -243l-287 -50l-27 -376zM207 264l127 29l24 377l314 53l153 203l-77 346l-265 78l-270 -86l16 -621zM340 1171l231 84l107 -157l-31 -219l-297 -97z M401 1128l9 -262l182 58l20 157l-65 101zM418 1051l8 -166l111 35l14 24l-86 129zM428 516l166 35l65 86l-227 -39z" />
<glyph unicode="q" horiz-adv-x="1089" d="M-39 1786l45 -41l230 254l233 -289l201 55l106 -239l152 418l125 -203l57 20l-190 371l-146 -446l-94 206l-211 -98l-217 315zM-27 -139l199 -312l201 400l227 -234l131 219l170 -319l186 225l-49 35l-129 -147l-178 374l-153 -274l-222 225l-190 -379l-141 220zM-10 694 l94 -280l186 -199l133 -37l207 19l19 47l-254 37l-189 206l-120 301l149 490h-84l-29 -207zM109 817l114 381l29 221l323 176l234 -192l176 -166l41 -229v-379l-250 -338l-225 -23l-145 43l-199 207zM172 817l90 -282l176 -170l117 -33l188 16l222 301v352l-37 205l-160 152 l-201 164l-258 -142l-26 -194zM268 807l135 166l93 268l182 -61l94 -207v-293l-233 -199l-131 166zM348 809l107 -123l92 -117l164 140v252l-78 169l-98 33l-76 -221zM422 854l18 -66l123 -149l27 207l-84 186l-19 -102z" />
<glyph unicode="r" horiz-adv-x="935" d="M-39 1786l291 323l151 -329l86 112l138 -250l207 480l165 -375l-57 -21l-111 216l-204 -426l-154 239l-94 -94l-137 307l-236 -223zM37 -141l51 32l137 -219l8 164l86 154l130 -244l178 272l192 -315l109 158l51 -35l-176 -254l-176 367l-172 -373l-146 303l-51 -334z M84 911l55 -856h217l-4 70l-151 -4l-58 846v319l-59 -47v-328zM154 1024v346l135 100l268 -30l268 -269l31 -309l-190 -149l-205 -8l293 -127l63 -402l-186 -14l-8 317l-146 51l-8 -41l20 -348h-276zM215 1026l55 -823h156v301l37 74l201 -84l6 -285l116 6l-71 334l-279 117 l-39 98l246 10l148 115l-25 254l-238 239l-221 25l-92 -68v-313zM358 1260l138 14l143 -115l80 -112l-123 -205l-205 24zM424 1204l25 -282l114 -15l82 135l-51 74l-117 94zM457 1184l127 -82l22 -55l-39 -113l-35 84l-67 35zM492 424l10 70l92 -33l24 -322h136l4 -41 l-178 -10l-33 293zM541 692l67 -35h33l18 41z" />
<glyph unicode="s" horiz-adv-x="1046" d="M-39 1786l45 -41l230 254l157 -357l277 123l118 -196l130 373l143 -158l57 20l-213 369l-137 -455l-88 174l-258 -145l-170 362zM-27 -139l199 -312l174 338l207 -217l178 312l131 -355l246 250l-51 35l-164 -158l-162 348l-207 -280l-186 141l-172 -289l-141 220z M14 827l146 -307l-10 125h141l-43 68l-131 284l102 246h-43zM49 420l35 -180l262 -179l410 154l2 76l-271 -109l-88 60l-200 145l-11 33h-139zM137 1004l174 446l471 18l213 -348l-309 -151l-24 157l-162 52l-49 -252l90 -52l168 44l260 -125l-29 -422l-442 -166l-287 194 l-43 228h227l92 -84l183 14l59 102l-35 39l-164 -30h-235zM203 1006l131 -277h190l193 37l86 -98l-94 -170l-244 -19l-94 86h-129l24 -129l240 -164l375 142l22 342l-201 96l-170 -43l-149 86l70 362l264 -86l14 -133l178 105l-159 264l-398 -16zM508 1143l27 -172l71 -70 l193 53l-4 54l-131 -54l-23 152l-76 27z" />
<glyph unicode="t" horiz-adv-x="1214" d="M-6 1786l291 323l301 -456l254 178l248 348l168 -375l-58 -20l-110 215l-211 -270l-320 -179l-291 432l-227 -237zM6 -139l199 -312l240 320l264 -248l168 379l182 -373l203 250l-51 35l-136 -152l-188 353l-182 -312l-279 181l-225 -291l-143 203zM88 1231l11 -320 l356 66l-39 -846h272v84l-196 -8l47 835l-367 -47l11 244zM197 1409l964 51l-10 -405l-291 28v-833h-333l36 840l-354 -66zM260 1352l9 -254l358 65l-37 -852h209v840l293 -29l8 273zM905 911l150 113l-150 8v-121z" />
<glyph unicode="u" horiz-adv-x="1038" d="M-39 1786l291 323l162 -380l161 223l146 -342l217 540l166 -374l-57 -21l-111 215l-223 -473l-162 291l-156 -170l-162 377l-227 -250zM-27 -139l199 -312l199 347l196 -258l154 352l186 -391l176 256l-51 34l-108 -157l-211 377l-160 -336l-193 217l-196 -318l-139 222z M59 217l263 -76l358 39l8 90l-276 -32l-269 88l99 1001l-80 82l-8 -178zM168 344l108 1284l265 -254l-19 -354l-92 -442l45 -99l131 86l60 199l-68 635l328 -47v-668l-80 -383l-385 -41zM233 389l232 -65l330 34l69 332v608l-196 29l61 -569l-72 -232l-206 -139l-86 182 l96 459l18 322l-149 141l-6 -113zM547 1196l28 -606l58 178l-33 418z" />
<glyph unicode="v" horiz-adv-x="1333" d="M-39 1786l291 323l170 -344l178 330l113 -414l131 273l151 -367l234 570l166 -375l-58 -21l-110 215l-213 -465l-170 244l-168 -225l-127 276l-146 -211l-170 349l-227 -199zM-27 -139l199 -312l201 400l190 -217l137 239l150 -372l164 503l184 -497l176 256l-51 35 l-109 -158l-204 551l-166 -510l-133 334l-160 -279l-180 201l-205 -361l-141 220zM66 1380l36 -301l338 -948l160 -18l76 84l-105 28l-47 123l-309 817l-29 131zM197 1597l399 -227l-21 -256l140 -397l295 721l239 -168l-461 -1030l-200 24l-346 969zM272 1485l31 -238 l330 -925l119 -15l422 942l-136 94l-327 -798l-197 561l16 231z" />
<glyph unicode="w" horiz-adv-x="1341" d="M-6 1786l45 -41l201 250l209 -463l116 223l152 -266l166 403l111 -360l233 481l111 -215l57 21l-166 374l-217 -516l-113 412l-178 -453l-156 283l-118 -229l-197 436zM6 -139l52 33l141 -220l190 379l183 -252l131 256l164 -243l170 321l200 -362l109 157l51 -34 l-176 -256l-184 393l-164 -400l-170 322l-119 -256l-182 268l-197 -418zM99 1231l18 -160l152 -846l196 -75l37 157l-178 68l-131 821zM168 1458l338 -129l23 -344l28 180l254 -127l35 -102l14 469h277l86 -236l-137 -860h-244l-160 350l-90 -368l-246 92l-153 864z M242 1364l12 -109l148 -827l147 -55l117 475l215 -477h151l127 792l-65 180h-174l-23 -753l-135 405l-158 78l-90 -244l-67 457zM639 418l117 -258h197l18 137h-139l-146 301zM772 1214l62 -208l6 233z" />
<glyph unicode="x" horiz-adv-x="1155" d="M-39 1786l291 323l123 -147l151 -367l80 158l201 -111l248 506l168 -374l-60 -21l-110 215l-203 -412l-232 84l-98 -194l-145 352l-133 197l-236 -250zM-27 -139l52 33l141 -220l203 162l159 279l134 -336l161 305l209 -346l117 149l43 -26l-176 -256l-193 342l-155 -348 l-150 374l-137 -241l-209 -213zM18 1174l299 -422l-243 -611l196 -94l39 96l-164 70l250 631l-76 98l-229 328zM121 1276l155 213l287 -477l129 465l264 -86l-161 -557l321 -390l-178 -237l-303 399l-207 -497l-252 120l248 621zM197 1278l297 -420l-240 -598l141 -67 l201 509l360 -419l91 170l-322 366l156 533l-148 47l-151 -551l-303 557zM522 1149l37 -80l66 240l-54 24zM602 434l205 -293l115 54l-273 358z" />
<glyph unicode="y" horiz-adv-x="1165" d="M-39 1786l45 -41l230 254l129 -244l206 133l84 -301l189 207l151 -199l58 387l110 -188l58 21l-150 374l-104 -424l-105 142l-186 -160l-76 248l-207 -146l-114 269zM-27 -139l199 -312l127 244l225 76l174 -283l185 283l166 -277l174 254l-52 35l-106 -157 q-51 104 -174 266l-199 -223l-168 204l-291 -141l-65 -131l-143 195zM90 1014l57 196l291 -309l-28 -825l309 18l39 -76h-490l37 789zM98 1321l189 293l342 -492l157 342l301 -84l-374 -561l78 -678l-328 -35l10 822zM176 1327l359 -377l-11 -776l199 23l-74 637l340 509 l-168 48l-180 -392l-352 504zM750 825l28 -112l197 452z" />
<glyph unicode="z" horiz-adv-x="1282" d="M-6 1786l291 323l237 -501l191 284l94 -206l356 456l166 -375l-57 -20l-111 215l-340 -432l-118 235l-189 -280l-245 514l-230 -254zM6 -139l199 -312l201 400l227 -234l113 275l168 -373l75 354l172 -377l177 256l-52 35l-108 -159l-197 424l-94 -310l-131 301 l-145 -313l-222 225l-190 -379l-141 220zM99 197v395l112 18v-282l807 86l19 -105zM215 1380l860 60l150 -324l-504 -346l418 -8l35 -291l-948 -102l20 381l537 333l-463 -16zM219 1249l95 -217h301l-330 -207zM289 438l817 86l-22 178l-557 11l622 424l-112 239l-738 -51 l64 -195l647 23l-705 -438zM830 799l264 178l-10 -131z" />
<glyph unicode="{" d="M31 786q0 326 228 556.5t550 230.5t549 -230.5t227 -556.5t-227.5 -555t-548.5 -229q-322 0 -550 229.5t-228 554.5zM258 512q0 -35 29 -59q63 -37 170 -109q100 -80 143 -139h37q86 86 257 238.5t249 226.5q6 8 11 36.5t13 34.5q43 33 64 37q-6 -2 49 -2q121 0 121 -127 q0 -51 -50.5 -140t-84.5 -97q-12 33 -23.5 61.5t-66.5 28.5q-53 0 -118 -47t-126 -97q-49 0 -76 -63q16 -2 16 -12q0 -8 -18 -29l-25 -25q18 -6 35 10.5t25 16.5q-2 -8 20 -14q-18 -20 -22 -37q4 -2 8 -2q6 0 39 31.5t72 41.5q8 0 8 13q0 12 -27 73q111 106 172 107 q37 0 51 -25q33 -57 39 -63q63 2 133 117q64 106 64 174q0 18 -37 90q-41 80 -70 80q-12 0 -182 -33v41q0 12 13.5 52t13.5 56q0 31 9 111t9 88q0 37 -172 117q-193 92 -205 102l-546 -415zM301 498v432q76 -78 154 -156q129 -143 127 -207l14 -307q-297 211 -295 238z M319 952q23 31 201 156q170 121 176 121q10 0 11 -6q0 -2 -2.5 -6.5t-2.5 -6.5q0 -4 11 -4q12 0 55 45q59 61 82 78l45 -31q-279 -184 -496 -362q35 -59 82 -59q14 0 13 -9q-6 -10 -2 -14q244 246 495 385q12 -4 29 -29q29 -41 33 -45q-4 0 -26 9.5t-36 9.5q-16 0 -174 -140 q-250 -221 -260 -231q16 -29 47 -52.5t55 -17.5q102 106 207 215q147 154 246 203q19 -14 29 -14q-78 -100 -248 -258q-137 -127 -277 -256zM334 586q16 -66 10 -84q29 8 82 -31q27 16 59 33l2 53q-10 12 -29.5 21.5t-19.5 13.5q0 14 5.5 55t5.5 58q-2 -2 -19 10 q0 -47 -6 -113q-61 -2 -90 -16zM354 555l4 8q37 -8 64 -24q25 12 45 14l2 -6q-14 -2 -41 -15v-40h-6l-2 36q-18 10 -66 27zM377 571q27 2 26 13q0 -2 18.5 -7.5t18.5 -7.5q0 2 -16 -10q-4 0 -22.5 6t-24.5 6zM502 920q0 33 10 38q111 94 346 291q0 -12 25 -39 q-240 -174 -381 -290zM608 489q0 80 2 115q295 291 414 303q0 -4 12.5 -15.5t12.5 -27.5q0 -12 -23 -90q-25 -88 -31 -115q-6 -35 -67 -92q-78 -72 -86 -86q-14 -37 -54 -96q-39 -43 -165 -147q0 45 -7.5 145t-7.5 106zM666 801q20 35 108 131q68 74 72 112q72 78 123 95 q0 -25 14 -37q-104 -106 -317 -301zM883 319q32 21 110 -20l-28 -29q-8 8 -27 6q-20 -2 -29 -18q0 4 7.5 18.5t7.5 24.5q0 6 -2 12q-16 -14 -39 6z" />
<glyph unicode="|" d="M31 786q0 326 228 556.5t550 230.5t549 -230.5t227 -556.5t-227.5 -555t-548.5 -229q-322 0 -550 229.5t-228 554.5zM258 512q0 -35 29 -59q63 -37 170 -109q100 -80 143 -139h37q86 86 257 238.5t249 226.5q6 8 11 36.5t13 34.5q43 33 64 37q-6 -2 49 -2q121 0 121 -127 q0 -51 -50.5 -140t-84.5 -97q-12 33 -23.5 61.5t-66.5 28.5q-53 0 -118 -47t-126 -97q-49 0 -76 -63q16 -2 16 -12q0 -8 -18 -29l-25 -25q18 -6 35 10.5t25 16.5q-2 -8 20 -14q-18 -20 -22 -37q4 -2 8 -2q6 0 39 31.5t72 41.5q8 0 8 13q0 12 -27 73q111 106 172 107 q37 0 51 -25q33 -57 39 -63q63 2 133 117q64 106 64 174q0 18 -37 90q-41 80 -70 80q-12 0 -182 -33v41q0 12 13.5 52t13.5 56q0 31 9 111t9 88q0 37 -172 117q-193 92 -205 102l-546 -415zM301 498v432q76 -78 154 -156q129 -143 127 -207l14 -307q-297 211 -295 238z M319 952q23 31 201 156q170 121 176 121q10 0 11 -6q0 -2 -2.5 -6.5t-2.5 -6.5q0 -4 11 -4q12 0 55 45q59 61 82 78l45 -31q-279 -184 -496 -362q35 -59 82 -59q14 0 13 -9q-6 -10 -2 -14q244 246 495 385q12 -4 29 -29q29 -41 33 -45q-4 0 -26 9.5t-36 9.5q-16 0 -174 -140 q-250 -221 -260 -231q16 -29 47 -52.5t55 -17.5q102 106 207 215q147 154 246 203q19 -14 29 -14q-78 -100 -248 -258q-137 -127 -277 -256zM334 586q16 -66 10 -84q29 8 82 -31q27 16 59 33l2 53q-10 12 -29.5 21.5t-19.5 13.5q0 14 5.5 55t5.5 58q-2 -2 -19 10 q0 -47 -6 -113q-61 -2 -90 -16zM354 555l4 8q37 -8 64 -24q25 12 45 14l2 -6q-14 -2 -41 -15v-40h-6l-2 36q-18 10 -66 27zM377 571q27 2 26 13q0 -2 18.5 -7.5t18.5 -7.5q0 2 -16 -10q-4 0 -22.5 6t-24.5 6zM502 920q0 33 10 38q111 94 346 291q0 -12 25 -39 q-240 -174 -381 -290zM608 489q0 80 2 115q295 291 414 303q0 -4 12.5 -15.5t12.5 -27.5q0 -12 -23 -90q-25 -88 -31 -115q-6 -35 -67 -92q-78 -72 -86 -86q-14 -37 -54 -96q-39 -43 -165 -147q0 45 -7.5 145t-7.5 106zM666 801q20 35 108 131q68 74 72 112q72 78 123 95 q0 -25 14 -37q-104 -106 -317 -301zM883 319q32 21 110 -20l-28 -29q-8 8 -27 6q-20 -2 -29 -18q0 4 7.5 18.5t7.5 24.5q0 6 -2 12q-16 -14 -39 6z" />
<glyph unicode="}" d="M31 786q0 326 228 556.5t550 230.5t549 -230.5t227 -556.5t-227.5 -555t-548.5 -229q-322 0 -550 229.5t-228 554.5zM258 512q0 -35 29 -59q63 -37 170 -109q100 -80 143 -139h37q86 86 257 238.5t249 226.5q6 8 11 36.5t13 34.5q43 33 64 37q-6 -2 49 -2q121 0 121 -127 q0 -51 -50.5 -140t-84.5 -97q-12 33 -23.5 61.5t-66.5 28.5q-53 0 -118 -47t-126 -97q-49 0 -76 -63q16 -2 16 -12q0 -8 -18 -29l-25 -25q18 -6 35 10.5t25 16.5q-2 -8 20 -14q-18 -20 -22 -37q4 -2 8 -2q6 0 39 31.5t72 41.5q8 0 8 13q0 12 -27 73q111 106 172 107 q37 0 51 -25q33 -57 39 -63q63 2 133 117q64 106 64 174q0 18 -37 90q-41 80 -70 80q-12 0 -182 -33v41q0 12 13.5 52t13.5 56q0 31 9 111t9 88q0 37 -172 117q-193 92 -205 102l-546 -415zM301 498v432q76 -78 154 -156q129 -143 127 -207l14 -307q-297 211 -295 238z M319 952q23 31 201 156q170 121 176 121q10 0 11 -6q0 -2 -2.5 -6.5t-2.5 -6.5q0 -4 11 -4q12 0 55 45q59 61 82 78l45 -31q-279 -184 -496 -362q35 -59 82 -59q14 0 13 -9q-6 -10 -2 -14q244 246 495 385q12 -4 29 -29q29 -41 33 -45q-4 0 -26 9.5t-36 9.5q-16 0 -174 -140 q-250 -221 -260 -231q16 -29 47 -52.5t55 -17.5q102 106 207 215q147 154 246 203q19 -14 29 -14q-78 -100 -248 -258q-137 -127 -277 -256zM334 586q16 -66 10 -84q29 8 82 -31q27 16 59 33l2 53q-10 12 -29.5 21.5t-19.5 13.5q0 14 5.5 55t5.5 58q-2 -2 -19 10 q0 -47 -6 -113q-61 -2 -90 -16zM354 555l4 8q37 -8 64 -24q25 12 45 14l2 -6q-14 -2 -41 -15v-40h-6l-2 36q-18 10 -66 27zM377 571q27 2 26 13q0 -2 18.5 -7.5t18.5 -7.5q0 2 -16 -10q-4 0 -22.5 6t-24.5 6zM502 920q0 33 10 38q111 94 346 291q0 -12 25 -39 q-240 -174 -381 -290zM608 489q0 80 2 115q295 291 414 303q0 -4 12.5 -15.5t12.5 -27.5q0 -12 -23 -90q-25 -88 -31 -115q-6 -35 -67 -92q-78 -72 -86 -86q-14 -37 -54 -96q-39 -43 -165 -147q0 45 -7.5 145t-7.5 106zM666 801q20 35 108 131q68 74 72 112q72 78 123 95 q0 -25 14 -37q-104 -106 -317 -301zM883 319q32 21 110 -20l-28 -29q-8 8 -27 6q-20 -2 -29 -18q0 4 7.5 18.5t7.5 24.5q0 6 -2 12q-16 -14 -39 6z" />
<glyph unicode="~" d="M31 786q0 326 228 556.5t550 230.5t549 -230.5t227 -556.5t-227.5 -555t-548.5 -229q-322 0 -550 229.5t-228 554.5zM258 512q0 -35 29 -59q63 -37 170 -109q100 -80 143 -139h37q86 86 257 238.5t249 226.5q6 8 11 36.5t13 34.5q43 33 64 37q-6 -2 49 -2q121 0 121 -127 q0 -51 -50.5 -140t-84.5 -97q-12 33 -23.5 61.5t-66.5 28.5q-53 0 -118 -47t-126 -97q-49 0 -76 -63q16 -2 16 -12q0 -8 -18 -29l-25 -25q18 -6 35 10.5t25 16.5q-2 -8 20 -14q-18 -20 -22 -37q4 -2 8 -2q6 0 39 31.5t72 41.5q8 0 8 13q0 12 -27 73q111 106 172 107 q37 0 51 -25q33 -57 39 -63q63 2 133 117q64 106 64 174q0 18 -37 90q-41 80 -70 80q-12 0 -182 -33v41q0 12 13.5 52t13.5 56q0 31 9 111t9 88q0 37 -172 117q-193 92 -205 102l-546 -415zM301 498v432q76 -78 154 -156q129 -143 127 -207l14 -307q-297 211 -295 238z M319 952q23 31 201 156q170 121 176 121q10 0 11 -6q0 -2 -2.5 -6.5t-2.5 -6.5q0 -4 11 -4q12 0 55 45q59 61 82 78l45 -31q-279 -184 -496 -362q35 -59 82 -59q14 0 13 -9q-6 -10 -2 -14q244 246 495 385q12 -4 29 -29q29 -41 33 -45q-4 0 -26 9.5t-36 9.5q-16 0 -174 -140 q-250 -221 -260 -231q16 -29 47 -52.5t55 -17.5q102 106 207 215q147 154 246 203q19 -14 29 -14q-78 -100 -248 -258q-137 -127 -277 -256zM334 586q16 -66 10 -84q29 8 82 -31q27 16 59 33l2 53q-10 12 -29.5 21.5t-19.5 13.5q0 14 5.5 55t5.5 58q-2 -2 -19 10 q0 -47 -6 -113q-61 -2 -90 -16zM354 555l4 8q37 -8 64 -24q25 12 45 14l2 -6q-14 -2 -41 -15v-40h-6l-2 36q-18 10 -66 27zM377 571q27 2 26 13q0 -2 18.5 -7.5t18.5 -7.5q0 2 -16 -10q-4 0 -22.5 6t-24.5 6zM502 920q0 33 10 38q111 94 346 291q0 -12 25 -39 q-240 -174 -381 -290zM608 489q0 80 2 115q295 291 414 303q0 -4 12.5 -15.5t12.5 -27.5q0 -12 -23 -90q-25 -88 -31 -115q-6 -35 -67 -92q-78 -72 -86 -86q-14 -37 -54 -96q-39 -43 -165 -147q0 45 -7.5 145t-7.5 106zM666 801q20 35 108 131q68 74 72 112q72 78 123 95 q0 -25 14 -37q-104 -106 -317 -301zM883 319q32 21 110 -20l-28 -29q-8 8 -27 6q-20 -2 -29 -18q0 4 7.5 18.5t7.5 24.5q0 6 -2 12q-16 -14 -39 6z" />
<glyph unicode="&#xad;" d="M0 786q0 338 236.5 578t572.5 240q334 0 570.5 -240t236.5 -578t-236.5 -576.5t-570.5 -238.5q-336 0 -572.5 239t-236.5 576zM61 786q0 -313 219.5 -533t528.5 -220q307 0 526 220t219 533t-219 534.5t-526 221.5q-309 0 -528.5 -221t-219.5 -535zM264 506 q-2 -39 17 -53q68 -43 176 -121q70 -53 82 -66q41 -35 61 -61h37q86 86 257 238.5t249 226.5q6 8 11 36.5t13 34.5q43 33 64 37q-6 -2 49 -2q121 0 121 -127q0 -51 -50.5 -140t-84.5 -97q-12 33 -23.5 61.5t-66.5 28.5q-53 0 -118 -47t-126 -97q-49 0 -76 -63q16 -2 16 -12 q0 -8 -18 -29l-25 -25q18 -6 35 10.5t25 16.5q-2 -8 20 -14q-18 -20 -22 -37q4 -2 8 -2q6 0 39 31.5t72 41.5q8 0 8 13q0 12 -27 73q111 106 172 107q37 0 51 -25q33 -57 39 -63q63 2 133 117q64 106 64 174q0 18 -37 90q-41 80 -70 80q-12 0 -182 -33v41q0 12 13.5 52 t13.5 56q0 31 9 111t9 88q0 37 -172 117q-193 92 -205 102l-546 -415zM301 498v432q80 -78 160 -158q135 -145 135 -209v-303q-297 211 -295 238zM319 952q23 31 201 156q170 121 176 121q10 0 11 -6q0 -2 -2.5 -6.5t-2.5 -6.5q0 -4 11 -4q12 0 55 45q59 61 82 78l45 -31 q-279 -184 -496 -362q35 -59 82 -59q14 0 13 -9q-6 -10 -2 -14q244 246 495 385q12 -4 29 -29q29 -41 33 -45q-4 0 -26 9.5t-36 9.5q-16 0 -174 -140q-250 -221 -260 -231q16 -29 47 -52.5t55 -17.5q102 106 207 215q147 154 246 203q19 -14 29 -14q-78 -100 -248 -258 q-137 -127 -277 -256zM334 586q16 -66 10 -84q29 8 82 -31q27 16 59 33l2 53q-10 12 -29.5 21.5t-19.5 13.5q0 14 5.5 55t5.5 58q-2 -2 -19 10q0 -47 -6 -113q-61 -2 -90 -16zM354 555l4 8q37 -8 64 -24q25 12 45 14l2 -6q-14 -2 -41 -15v-40h-6l-2 36q-18 10 -66 27z M377 571q27 2 26 13q0 -2 18.5 -7.5t18.5 -7.5q0 2 -16 -10q-4 0 -22.5 6t-24.5 6zM502 920q0 33 10 38q111 94 346 291q0 -12 25 -39q-240 -174 -381 -290zM608 489q0 80 2 115q295 291 414 303q0 -4 12.5 -15.5t12.5 -27.5q0 -12 -23 -90q-25 -88 -31 -115q-6 -35 -67 -92 q-78 -72 -86 -86q-14 -37 -54 -96q-39 -43 -165 -147q0 45 -7.5 145t-7.5 106zM666 801q20 35 108 131q68 74 72 112q72 78 123 95q0 -25 14 -37q-104 -106 -317 -301zM883 319q32 21 110 -20l-28 -29q-8 8 -27 6q-20 -2 -29 -18q0 4 7.5 18.5t7.5 24.5q0 6 -2 12 q-16 -14 -39 6z" />
<glyph unicode="&#x2000;" horiz-adv-x="1178" />
<glyph unicode="&#x2001;" horiz-adv-x="2357" />
<glyph unicode="&#x2002;" horiz-adv-x="1178" />
<glyph unicode="&#x2003;" horiz-adv-x="2357" />
<glyph unicode="&#x2004;" horiz-adv-x="785" />
<glyph unicode="&#x2005;" horiz-adv-x="589" />
<glyph unicode="&#x2006;" horiz-adv-x="392" />
<glyph unicode="&#x2007;" horiz-adv-x="392" />
<glyph unicode="&#x2008;" horiz-adv-x="294" />
<glyph unicode="&#x2009;" horiz-adv-x="471" />
<glyph unicode="&#x200a;" horiz-adv-x="130" />
<glyph unicode="&#x2010;" d="M0 786q0 338 236.5 578t572.5 240q334 0 570.5 -240t236.5 -578t-236.5 -576.5t-570.5 -238.5q-336 0 -572.5 239t-236.5 576zM61 786q0 -313 219.5 -533t528.5 -220q307 0 526 220t219 533t-219 534.5t-526 221.5q-309 0 -528.5 -221t-219.5 -535zM264 506 q-2 -39 17 -53q68 -43 176 -121q70 -53 82 -66q41 -35 61 -61h37q86 86 257 238.5t249 226.5q6 8 11 36.5t13 34.5q43 33 64 37q-6 -2 49 -2q121 0 121 -127q0 -51 -50.5 -140t-84.5 -97q-12 33 -23.5 61.5t-66.5 28.5q-53 0 -118 -47t-126 -97q-49 0 -76 -63q16 -2 16 -12 q0 -8 -18 -29l-25 -25q18 -6 35 10.5t25 16.5q-2 -8 20 -14q-18 -20 -22 -37q4 -2 8 -2q6 0 39 31.5t72 41.5q8 0 8 13q0 12 -27 73q111 106 172 107q37 0 51 -25q33 -57 39 -63q63 2 133 117q64 106 64 174q0 18 -37 90q-41 80 -70 80q-12 0 -182 -33v41q0 12 13.5 52 t13.5 56q0 31 9 111t9 88q0 37 -172 117q-193 92 -205 102l-546 -415zM301 498v432q80 -78 160 -158q135 -145 135 -209v-303q-297 211 -295 238zM319 952q23 31 201 156q170 121 176 121q10 0 11 -6q0 -2 -2.5 -6.5t-2.5 -6.5q0 -4 11 -4q12 0 55 45q59 61 82 78l45 -31 q-279 -184 -496 -362q35 -59 82 -59q14 0 13 -9q-6 -10 -2 -14q244 246 495 385q12 -4 29 -29q29 -41 33 -45q-4 0 -26 9.5t-36 9.5q-16 0 -174 -140q-250 -221 -260 -231q16 -29 47 -52.5t55 -17.5q102 106 207 215q147 154 246 203q19 -14 29 -14q-78 -100 -248 -258 q-137 -127 -277 -256zM334 586q16 -66 10 -84q29 8 82 -31q27 16 59 33l2 53q-10 12 -29.5 21.5t-19.5 13.5q0 14 5.5 55t5.5 58q-2 -2 -19 10q0 -47 -6 -113q-61 -2 -90 -16zM354 555l4 8q37 -8 64 -24q25 12 45 14l2 -6q-14 -2 -41 -15v-40h-6l-2 36q-18 10 -66 27z M377 571q27 2 26 13q0 -2 18.5 -7.5t18.5 -7.5q0 2 -16 -10q-4 0 -22.5 6t-24.5 6zM502 920q0 33 10 38q111 94 346 291q0 -12 25 -39q-240 -174 -381 -290zM608 489q0 80 2 115q295 291 414 303q0 -4 12.5 -15.5t12.5 -27.5q0 -12 -23 -90q-25 -88 -31 -115q-6 -35 -67 -92 q-78 -72 -86 -86q-14 -37 -54 -96q-39 -43 -165 -147q0 45 -7.5 145t-7.5 106zM666 801q20 35 108 131q68 74 72 112q72 78 123 95q0 -25 14 -37q-104 -106 -317 -301zM883 319q32 21 110 -20l-28 -29q-8 8 -27 6q-20 -2 -29 -18q0 4 7.5 18.5t7.5 24.5q0 6 -2 12 q-16 -14 -39 6z" />
<glyph unicode="&#x2011;" d="M0 786q0 338 236.5 578t572.5 240q334 0 570.5 -240t236.5 -578t-236.5 -576.5t-570.5 -238.5q-336 0 -572.5 239t-236.5 576zM61 786q0 -313 219.5 -533t528.5 -220q307 0 526 220t219 533t-219 534.5t-526 221.5q-309 0 -528.5 -221t-219.5 -535zM264 506 q-2 -39 17 -53q68 -43 176 -121q70 -53 82 -66q41 -35 61 -61h37q86 86 257 238.5t249 226.5q6 8 11 36.5t13 34.5q43 33 64 37q-6 -2 49 -2q121 0 121 -127q0 -51 -50.5 -140t-84.5 -97q-12 33 -23.5 61.5t-66.5 28.5q-53 0 -118 -47t-126 -97q-49 0 -76 -63q16 -2 16 -12 q0 -8 -18 -29l-25 -25q18 -6 35 10.5t25 16.5q-2 -8 20 -14q-18 -20 -22 -37q4 -2 8 -2q6 0 39 31.5t72 41.5q8 0 8 13q0 12 -27 73q111 106 172 107q37 0 51 -25q33 -57 39 -63q63 2 133 117q64 106 64 174q0 18 -37 90q-41 80 -70 80q-12 0 -182 -33v41q0 12 13.5 52 t13.5 56q0 31 9 111t9 88q0 37 -172 117q-193 92 -205 102l-546 -415zM301 498v432q80 -78 160 -158q135 -145 135 -209v-303q-297 211 -295 238zM319 952q23 31 201 156q170 121 176 121q10 0 11 -6q0 -2 -2.5 -6.5t-2.5 -6.5q0 -4 11 -4q12 0 55 45q59 61 82 78l45 -31 q-279 -184 -496 -362q35 -59 82 -59q14 0 13 -9q-6 -10 -2 -14q244 246 495 385q12 -4 29 -29q29 -41 33 -45q-4 0 -26 9.5t-36 9.5q-16 0 -174 -140q-250 -221 -260 -231q16 -29 47 -52.5t55 -17.5q102 106 207 215q147 154 246 203q19 -14 29 -14q-78 -100 -248 -258 q-137 -127 -277 -256zM334 586q16 -66 10 -84q29 8 82 -31q27 16 59 33l2 53q-10 12 -29.5 21.5t-19.5 13.5q0 14 5.5 55t5.5 58q-2 -2 -19 10q0 -47 -6 -113q-61 -2 -90 -16zM354 555l4 8q37 -8 64 -24q25 12 45 14l2 -6q-14 -2 -41 -15v-40h-6l-2 36q-18 10 -66 27z M377 571q27 2 26 13q0 -2 18.5 -7.5t18.5 -7.5q0 2 -16 -10q-4 0 -22.5 6t-24.5 6zM502 920q0 33 10 38q111 94 346 291q0 -12 25 -39q-240 -174 -381 -290zM608 489q0 80 2 115q295 291 414 303q0 -4 12.5 -15.5t12.5 -27.5q0 -12 -23 -90q-25 -88 -31 -115q-6 -35 -67 -92 q-78 -72 -86 -86q-14 -37 -54 -96q-39 -43 -165 -147q0 45 -7.5 145t-7.5 106zM666 801q20 35 108 131q68 74 72 112q72 78 123 95q0 -25 14 -37q-104 -106 -317 -301zM883 319q32 21 110 -20l-28 -29q-8 8 -27 6q-20 -2 -29 -18q0 4 7.5 18.5t7.5 24.5q0 6 -2 12 q-16 -14 -39 6z" />
<glyph unicode="&#x2012;" d="M0 786q0 338 236.5 578t572.5 240q334 0 570.5 -240t236.5 -578t-236.5 -576.5t-570.5 -238.5q-336 0 -572.5 239t-236.5 576zM61 786q0 -313 219.5 -533t528.5 -220q307 0 526 220t219 533t-219 534.5t-526 221.5q-309 0 -528.5 -221t-219.5 -535zM264 506 q-2 -39 17 -53q68 -43 176 -121q70 -53 82 -66q41 -35 61 -61h37q86 86 257 238.5t249 226.5q6 8 11 36.5t13 34.5q43 33 64 37q-6 -2 49 -2q121 0 121 -127q0 -51 -50.5 -140t-84.5 -97q-12 33 -23.5 61.5t-66.5 28.5q-53 0 -118 -47t-126 -97q-49 0 -76 -63q16 -2 16 -12 q0 -8 -18 -29l-25 -25q18 -6 35 10.5t25 16.5q-2 -8 20 -14q-18 -20 -22 -37q4 -2 8 -2q6 0 39 31.5t72 41.5q8 0 8 13q0 12 -27 73q111 106 172 107q37 0 51 -25q33 -57 39 -63q63 2 133 117q64 106 64 174q0 18 -37 90q-41 80 -70 80q-12 0 -182 -33v41q0 12 13.5 52 t13.5 56q0 31 9 111t9 88q0 37 -172 117q-193 92 -205 102l-546 -415zM301 498v432q80 -78 160 -158q135 -145 135 -209v-303q-297 211 -295 238zM319 952q23 31 201 156q170 121 176 121q10 0 11 -6q0 -2 -2.5 -6.5t-2.5 -6.5q0 -4 11 -4q12 0 55 45q59 61 82 78l45 -31 q-279 -184 -496 -362q35 -59 82 -59q14 0 13 -9q-6 -10 -2 -14q244 246 495 385q12 -4 29 -29q29 -41 33 -45q-4 0 -26 9.5t-36 9.5q-16 0 -174 -140q-250 -221 -260 -231q16 -29 47 -52.5t55 -17.5q102 106 207 215q147 154 246 203q19 -14 29 -14q-78 -100 -248 -258 q-137 -127 -277 -256zM334 586q16 -66 10 -84q29 8 82 -31q27 16 59 33l2 53q-10 12 -29.5 21.5t-19.5 13.5q0 14 5.5 55t5.5 58q-2 -2 -19 10q0 -47 -6 -113q-61 -2 -90 -16zM354 555l4 8q37 -8 64 -24q25 12 45 14l2 -6q-14 -2 -41 -15v-40h-6l-2 36q-18 10 -66 27z M377 571q27 2 26 13q0 -2 18.5 -7.5t18.5 -7.5q0 2 -16 -10q-4 0 -22.5 6t-24.5 6zM502 920q0 33 10 38q111 94 346 291q0 -12 25 -39q-240 -174 -381 -290zM608 489q0 80 2 115q295 291 414 303q0 -4 12.5 -15.5t12.5 -27.5q0 -12 -23 -90q-25 -88 -31 -115q-6 -35 -67 -92 q-78 -72 -86 -86q-14 -37 -54 -96q-39 -43 -165 -147q0 45 -7.5 145t-7.5 106zM666 801q20 35 108 131q68 74 72 112q72 78 123 95q0 -25 14 -37q-104 -106 -317 -301zM883 319q32 21 110 -20l-28 -29q-8 8 -27 6q-20 -2 -29 -18q0 4 7.5 18.5t7.5 24.5q0 6 -2 12 q-16 -14 -39 6z" />
<glyph unicode="&#x2013;" horiz-adv-x="1023" d="M0 786q0 338 150 578t363 240q211 0 361 -240t150 -578t-150 -576.5t-361 -238.5q-213 0 -363 239t-150 576zM39 786q0 -313 139 -533t335 -220q194 0 333 220t139 533t-139 534.5t-333 221.5q-196 0 -335 -221t-139 -535zM167 506q-1 -39 11 -53q43 -43 112 -121 q44 -53 52 -66q26 -35 38 -61h24q54 86 162.5 238.5t157.5 226.5q4 8 7 36.5t8 34.5q28 33 41 37q-4 -2 31 -2q77 0 77 -127q0 -51 -32 -140t-54 -97q-7 33 -14.5 61.5t-42.5 28.5q-33 0 -74.5 -47t-79.5 -97q-31 0 -49 -63q11 -2 11 -12q0 -8 -12 -29l-16 -25 q12 -6 22.5 10.5t15.5 16.5q-1 -8 13 -14q-11 -20 -14 -37q3 -2 5 -2q4 0 25 31.5t45 41.5q6 0 6 13q0 12 -18 73q71 106 109 107q24 0 33 -25q21 -57 24 -63q40 2 85 117q40 106 40 174q0 18 -23 90q-26 80 -45 80q-7 0 -115 -33v41q0 12 8.5 52t8.5 56q0 31 6 111t6 88 q0 37 -109 117q-123 92 -130 102l-346 -415zM191 498v432q50 -78 101 -158q86 -145 86 -209v-303q-189 211 -187 238zM202 952q15 31 128 156q107 121 111 121q6 0 7 -6q0 -2 -1.5 -6.5t-1.5 -6.5q0 -4 7 -4t35 45q37 61 52 78l28 -31q-177 -184 -314 -362q22 -59 52 -59 q9 0 8 -9q-4 -10 -1 -14q154 246 313 385q8 -4 19 -29q18 -41 21 -45q-3 0 -17 9.5t-23 9.5q-10 0 -110 -140q-158 -221 -165 -231q11 -29 30.5 -52.5t34.5 -17.5q65 106 131 215q93 154 156 203q12 -14 18 -14q-49 -100 -157 -258q-86 -127 -175 -256zM212 586 q10 -66 6 -84q18 8 52 -31q17 16 37 33l2 53q-7 12 -19 21.5t-12 13.5q0 14 3.5 55t3.5 58q-2 -2 -13 10q0 -47 -3 -113q-39 -2 -57 -16zM224 555l3 8q23 -8 40 -24q16 12 29 14l1 -6q-9 -2 -26 -15v-40h-4l-1 36q-11 10 -42 27zM239 571q17 2 16 13q0 -2 12 -7.5t12 -7.5 q0 2 -10 -10q-3 0 -14.5 6t-15.5 6zM318 920q0 33 6 38q71 94 220 291q0 -12 16 -39q-153 -174 -242 -290zM385 489q0 80 2 115q186 291 262 303q0 -4 8 -15.5t8 -27.5q0 -12 -15 -90q-16 -88 -20 -115q-3 -35 -42 -92q-49 -72 -54 -86q-9 -37 -35 -96q-24 -43 -104 -147 q0 45 -5 145t-5 106zM422 801q13 35 68 131q44 74 46 112q46 78 78 95q0 -25 9 -37q-66 -106 -201 -301zM560 319q20 21 69 -20l-18 -29q-5 8 -17 6t-18 -18q0 4 5 18.5t5 24.5q0 6 -2 12q-10 -14 -24 6z" />
<glyph unicode="&#x2014;" horiz-adv-x="2047" d="M0 786q0 338 299.5 578t725.5 240q424 0 723.5 -240t299.5 -578t-299.5 -576.5t-723.5 -238.5q-426 0 -725.5 239t-299.5 576zM77 786q0 -313 278.5 -533t669.5 -220q389 0 666.5 220t277.5 533t-277.5 534.5t-666.5 221.5q-391 0 -669.5 -221t-278.5 -535zM335 506 q-3 -39 21 -53q86 -43 223 -121q89 -53 104 -66q52 -35 77 -61h47q109 86 326 238.5t316 226.5q7 8 13.5 36.5t16.5 34.5q54 33 81 37q-8 -2 62 -2q154 0 154 -127q0 -51 -64 -140t-108 -97q-15 33 -29.5 61.5t-84.5 28.5q-67 0 -149.5 -47t-159.5 -97q-62 0 -96 -63 q20 -2 20 -12q0 -8 -23 -29l-31 -25q22 -6 44 10.5t32 16.5q-3 -8 25 -14q-23 -20 -28 -37q5 -2 10 -2q8 0 50 31.5t91 41.5q10 0 10 13q0 12 -34 73q141 106 218 107q47 0 64 -25q42 -57 50 -63q80 2 168 117q82 106 82 174q0 18 -47 90q-52 80 -89 80q-15 0 -231 -33v41 q0 12 17.5 52t17.5 56q0 31 11 111t11 88q0 37 -218 117q-244 92 -259 102l-692 -415zM381 498v432q102 -78 203 -158q171 -145 171 -209v-303q-376 211 -374 238zM404 952q29 31 255 156q215 121 223 121q13 0 14 -6q0 -2 -3 -6.5t-3 -6.5q0 -4 14 -4q15 0 69 45 q75 61 104 78l57 -31q-353 -184 -628 -362q44 -59 104 -59q17 0 16 -9q-8 -10 -2 -14q309 246 627 385q15 -4 37 -29q36 -41 41 -45q-5 0 -32.5 9.5t-45.5 9.5q-20 0 -221 -140q-316 -221 -329 -231q20 -29 59.5 -52.5t69.5 -17.5q129 106 262 215q187 154 312 203 q24 -14 37 -14q-99 -100 -314 -258q-174 -127 -351 -256zM423 586q21 -66 13 -84q37 8 104 -31q34 16 75 33l2 53q-12 12 -37 21.5t-25 13.5q0 14 7 55t7 58q-3 -2 -24 10q0 -47 -8 -113q-77 -2 -114 -16zM449 555l5 8q47 -8 81 -24q31 12 57 14l2 -6q-17 -2 -52 -15v-40h-7 l-3 36q-23 10 -83 27zM478 571q34 2 33 13q0 -2 23.5 -7.5t23.5 -7.5q0 2 -21 -10q-5 0 -28.5 6t-30.5 6zM636 920q0 33 13 38q141 94 438 291q0 -12 32 -39q-304 -174 -483 -290zM771 489q0 80 2 115q374 291 525 303q0 -4 15.5 -15.5t15.5 -27.5q0 -12 -29 -90 q-31 -88 -39 -115q-8 -35 -85 -92q-99 -72 -109 -86q-18 -37 -68 -96q-50 -43 -209 -147q0 45 -9.5 145t-9.5 106zM844 801q25 35 137 131q86 74 91 112q91 78 156 95q0 -25 18 -37q-132 -106 -402 -301zM1119 319q41 21 139 -20l-35 -29q-10 8 -34 6q-26 -2 -37 -18 q0 4 9.5 18.5t9.5 24.5q0 6 -3 12q-20 -14 -49 6z" />
<glyph unicode="&#x202f;" horiz-adv-x="471" />
<glyph unicode="&#x205f;" horiz-adv-x="589" />
<glyph unicode="&#x25fc;" horiz-adv-x="2150" d="M0 0v2150h2150v-2150h-2150z" />
</font>
</defs>
</svg>
